<?xml version="1.0" encoding="UTF-8" standalone="no"?>
<!-- Created with Inkscape (http://www.inkscape.org/) -->

<svg
   xmlns:dc="http://purl.org/dc/elements/1.1/"
   xmlns:cc="http://creativecommons.org/ns#"
   xmlns:rdf="http://www.w3.org/1999/02/22-rdf-syntax-ns#"
   xmlns:svg="http://www.w3.org/2000/svg"
   xmlns="http://www.w3.org/2000/svg"
   xmlns:xlink="http://www.w3.org/1999/xlink"
   xmlns:sodipodi="http://sodipodi.sourceforge.net/DTD/sodipodi-0.dtd"
   xmlns:inkscape="http://www.inkscape.org/namespaces/inkscape"
   id="svg2"
   version="1.1"
   inkscape:version="0.91+devel r13869"
   xml:space="preserve"
   width="352.1369"
   height="131.64244"
   viewBox="0 0 352.1369 131.64244"
   sodipodi:docname="page-logo.svg"
   inkscape:export-filename="/home/joe/page/art/logo/page-logo.png"
   inkscape:export-xdpi="163.35158"
   inkscape:export-ydpi="163.35158"><metadata
     id="metadata8"><rdf:RDF><cc:Work
         rdf:about=""><dc:format>image/svg+xml</dc:format><dc:type
           rdf:resource="http://purl.org/dc/dcmitype/StillImage" /><dc:title></dc:title></cc:Work></rdf:RDF></metadata><defs
     id="defs6"><clipPath
       clipPathUnits="userSpaceOnUse"
       id="clipPath16"><path
         d="m 44.603,0 13.5,0 0,431.5 -13.5,0 0,-431.5 z"
         id="path18"
         inkscape:connector-curvature="0" /></clipPath><linearGradient
       x1="0"
       y1="0"
       x2="1"
       y2="0"
       gradientUnits="userSpaceOnUse"
       gradientTransform="matrix(634.91493,0,0,-634.91493,-80.622733,-21.546879)"
       spreadMethod="pad"
       id="linearGradient24"><stop
         style="stop-opacity:1;stop-color:#ffffff"
         offset="0"
         id="stop26" /><stop
         style="stop-opacity:1;stop-color:#80cc28"
         offset="1"
         id="stop28" /></linearGradient><clipPath
       clipPathUnits="userSpaceOnUse"
       id="clipPath36"><path
         d="M 0,432 288,432 288,0 0,0 0,432 Z"
         id="path38"
         inkscape:connector-curvature="0" /></clipPath><clipPath
       clipPathUnits="userSpaceOnUse"
       id="clipPath3038"><path
         d="m 226.556,32.2842 47.842,0 0,-22.7842 -47.842,0 0,22.7842 z"
         id="path3040"
         inkscape:connector-curvature="0" /></clipPath><clipPath
       clipPathUnits="userSpaceOnUse"
       id="clipPath3038-3"><path
         d="m 226.556,32.2842 47.842,0 0,-22.7842 -47.842,0 0,22.7842 z"
         id="path3040-7"
         inkscape:connector-curvature="0" /></clipPath><linearGradient
       inkscape:collect="always"
       xlink:href="#linearGradient24"
       id="linearGradient12144"
       x1="59.160133"
       y1="436.34656"
       x2="58.103001"
       y2="215.75"
       gradientUnits="userSpaceOnUse"
       gradientTransform="matrix(1.0664187,0,0,1.0664187,15.313071,98.450307)" /><linearGradient
       inkscape:collect="always"
       xlink:href="#linearGradient24"
       id="linearGradient12286"
       gradientUnits="userSpaceOnUse"
       x1="59.160133"
       y1="436.34656"
       x2="58.103001"
       y2="215.75"
       gradientTransform="matrix(1.0664187,0,0,1.0664187,15.313071,98.450307)" /></defs><sodipodi:namedview
     pagecolor="#ffffff"
     bordercolor="#666666"
     borderopacity="1"
     objecttolerance="10"
     gridtolerance="10"
     guidetolerance="10"
     inkscape:pageopacity="0"
     inkscape:pageshadow="2"
     inkscape:window-width="1345"
     inkscape:window-height="750"
     id="namedview4"
     showgrid="false"
     fit-margin-top="4"
     fit-margin-left="4"
     fit-margin-right="4"
     fit-margin-bottom="4"
     inkscape:zoom="1.7805575"
     inkscape:cx="12.917302"
     inkscape:cy="64.697976"
     inkscape:window-x="21"
     inkscape:window-y="0"
     inkscape:window-maximized="1"
     inkscape:current-layer="g10"
     inkscape:snap-page="true" /><g
     id="g10"
     inkscape:groupmode="layer"
     inkscape:label="page-brochure-front"
     transform="matrix(1.25,0,0,-1.25,-86.086471,528.359)"><rect
       style="opacity:1;fill:#ffffff;fill-opacity:1;stroke:none;stroke-width:4.26666689;stroke-linecap:round;stroke-linejoin:miter;stroke-miterlimit:4;stroke-dasharray:none;stroke-dashoffset:0;stroke-opacity:1"
       id="rect4353"
       width="281.70953"
       height="105.31395"
       x="68.869179"
       y="-422.68719"
       transform="scale(1,-1)" /><g
       id="g22"
       transform="matrix(0,-0.63802902,0.63802902,0,72.069177,377.10118)"
       style="fill:url(#linearGradient12144);fill-opacity:1"><path
         inkscape:connector-curvature="0"
         id="path30"
         style="fill:url(#linearGradient12286);fill-opacity:1;stroke:none"
         d="m 44.603,0 13.5,0 0,431.5 -13.5,0 0,-431.5 z" /></g><g
       id="g10857"
       transform="matrix(0,-0.68040611,0.68040611,0,62.889033,344.79802)"><g
         transform="translate(15.6582,19.9102)"
         id="g40"><path
           inkscape:connector-curvature="0"
           id="path42"
           style="fill:#231f20;fill-opacity:1;fill-rule:nonzero;stroke:none"
           d="m 0,0 5.23,0 c 0.01,0.152 0.014,0.283 0.014,0.394 0,0.491 -0.121,0.831 -0.363,1.022 -0.24,0.189 -0.742,0.285 -1.504,0.285 l -1.688,0 C 0.986,1.701 0.529,1.592 0.318,1.371 0.105,1.15 0,0.693 0,0 m -3.516,-5.345 0,5.383 c 0,1.456 0.114,2.575 0.342,3.358 0.229,0.783 0.559,1.372 0.99,1.764 0.432,0.395 0.955,0.66 1.569,0.801 C -0.002,6.1 0.949,6.17 2.234,6.17 l 1.791,0 C 5.336,6.17 6.293,6.035 6.895,5.764 7.494,5.492 7.957,4.996 8.277,4.271 8.6,3.549 8.76,2.603 8.76,1.435 l 0,-1.435 8.277,0 0,-5.345 -20.553,0 z" /></g><g
         transform="translate(12.1426,32.5928)"
         id="g44"><path
           inkscape:connector-curvature="0"
           id="path46"
           style="fill:#231f20;fill-opacity:1;fill-rule:nonzero;stroke:none"
           d="M 0,0 4.623,0 C 4.217,0.44 3.91,0.916 3.707,1.429 3.504,1.94 3.402,2.488 3.402,3.072 c 0,0.898 0.229,1.661 0.686,2.292 0.457,0.63 0.982,1.016 1.58,1.155 0.596,0.14 1.686,0.21 3.27,0.21 l 11.615,0 0,-5.129 -11.858,0 C 7.715,1.6 7.084,1.551 6.805,1.454 6.525,1.356 6.385,1.138 6.385,0.8 6.385,0.487 6.529,0.274 6.816,0.165 7.105,0.056 7.676,0 8.531,0 l 12.022,0 0,-5.129 L 0,-5.129 0,0 Z" /></g><path
         inkscape:connector-curvature="0"
         id="path48"
         style="fill:#231f20;fill-opacity:1;fill-rule:nonzero;stroke:none"
         d="m 15.85,46.367 16.846,0 0,-5.281 -16.846,0 0,5.281 z m -3.707,0 2.678,0 0,-5.281 -2.678,0 0,5.281 z" /><path
         inkscape:connector-curvature="0"
         id="path50"
         style="fill:#231f20;fill-opacity:1;fill-rule:nonzero;stroke:none"
         d="m 12.143,53.489 20.553,0 0,-5.281 -20.553,0 0,5.281 z" /><g
         transform="translate(24.6855,61.5381)"
         id="g52"><path
           inkscape:connector-curvature="0"
           id="path54"
           style="fill:#231f20;fill-opacity:1;fill-rule:nonzero;stroke:none"
           d="m 0,0 c 0.6,-0.821 1.104,-1.297 1.51,-1.429 0.406,-0.131 0.99,-0.196 1.752,-0.196 0.873,0 1.435,0.058 1.689,0.171 0.254,0.115 0.381,0.342 0.381,0.68 0,0.322 -0.1,0.531 -0.299,0.628 C 4.834,-0.049 4.313,0 3.465,0 L 0,0 Z m -2.311,-1.625 0,-4.812 -1.13,0 c -1.303,0 -2.309,0.151 -3.016,0.452 -0.705,0.299 -1.33,0.902 -1.871,1.808 -0.543,0.906 -0.813,2.082 -0.813,3.53 0,1.734 0.307,3.043 0.92,3.922 0.614,0.88 1.367,1.41 2.26,1.587 0.893,0.178 2.732,0.267 5.516,0.267 l 8.455,0 0,-4.989 -1.5,0 C 7.111,-0.173 7.563,-0.577 7.863,-1.073 8.164,-1.567 8.314,-2.158 8.314,-2.844 8.314,-3.741 8.063,-4.563 7.559,-5.313 7.057,-6.062 5.953,-6.437 4.252,-6.437 l -1.383,0 c -1.262,0 -2.121,0.2 -2.578,0.597 -0.457,0.398 -0.99,1.384 -1.6,2.958 -0.66,1.684 -1.103,2.586 -1.332,2.704 C -2.869,-0.06 -3.336,0 -4.037,0 c -0.881,0 -1.455,-0.065 -1.721,-0.196 -0.267,-0.132 -0.4,-0.35 -0.4,-0.655 0,-0.347 0.113,-0.562 0.336,-0.647 0.224,-0.085 0.806,-0.127 1.746,-0.127 l 1.765,0 z" /></g><g
         transform="translate(20.0898,74.9697)"
         id="g56"><path
           inkscape:connector-curvature="0"
           id="path58"
           style="fill:#231f20;fill-opacity:1;fill-rule:nonzero;stroke:none"
           d="m 0,0 c -0.619,0 -1.033,-0.053 -1.244,-0.159 -0.213,-0.106 -0.319,-0.315 -0.319,-0.628 0,-0.305 0.096,-0.51 0.286,-0.616 C -1.086,-1.509 -0.66,-1.562 0,-1.562 l 8.252,0 c 0.686,0 1.135,0.051 1.352,0.153 0.214,0.101 0.324,0.297 0.324,0.584 0,0.33 -0.121,0.551 -0.364,0.66 C 9.324,-0.056 8.734,0 7.795,0 L 0,0 Z m -7.947,5.129 20.552,0 0,-5.129 -1.22,0 c 0.508,-0.491 0.89,-1.007 1.144,-1.549 0.254,-0.542 0.381,-1.108 0.381,-1.701 0,-0.796 -0.209,-1.485 -0.629,-2.069 C 11.863,-5.903 11.379,-6.278 10.828,-6.442 10.279,-6.608 9.381,-6.69 8.137,-6.69 l -7.883,0 c -1.295,0 -2.213,0.082 -2.756,0.248 -0.541,0.164 -1.018,0.543 -1.428,1.135 -0.41,0.593 -0.615,1.3 -0.615,2.12 0,0.635 0.113,1.217 0.344,1.747 0.228,0.528 0.572,1.008 1.029,1.44 l -4.775,0 0,5.129 z" /></g><g
         transform="translate(21.8281,88.4141)"
         id="g60"><path
           inkscape:connector-curvature="0"
           id="path62"
           style="fill:#231f20;fill-opacity:1;fill-rule:nonzero;stroke:none"
           d="m 0,0 -1.23,0 c -0.874,0 -1.436,-0.047 -1.69,-0.14 -0.254,-0.092 -0.381,-0.284 -0.381,-0.571 0,-0.355 0.108,-0.576 0.324,-0.66 0.215,-0.084 0.797,-0.127 1.747,-0.127 L 0,-1.498 0,0 Z m 2.742,5.142 0,-6.64 3.645,0 c 0.761,0 1.252,0.055 1.472,0.165 0.219,0.11 0.33,0.321 0.33,0.635 0,0.389 -0.146,0.649 -0.439,0.78 C 7.459,0.214 6.895,0.279 6.057,0.279 l -2.223,0 0,4.863 1.244,0 C 6.119,5.142 6.92,5.076 7.479,4.945 8.037,4.813 8.633,4.507 9.268,4.024 9.902,3.542 10.379,2.931 10.695,2.189 c 0.319,-0.74 0.477,-1.668 0.477,-2.786 0,-1.083 -0.156,-2.04 -0.469,-2.869 C 10.389,-4.295 9.959,-4.94 9.414,-5.402 8.867,-5.863 8.268,-6.183 7.611,-6.36 6.955,-6.538 6.002,-6.627 4.748,-6.627 l -4.912,0 c -1.473,0 -2.635,0.199 -3.486,0.597 -0.85,0.397 -1.502,1.05 -1.955,1.955 -0.452,0.905 -0.678,1.946 -0.678,3.123 0,1.438 0.271,2.626 0.818,3.561 0.545,0.935 1.27,1.591 2.17,1.967 0.902,0.377 2.17,0.566 3.803,0.566 l 2.234,0 z" /></g><path
         inkscape:connector-curvature="0"
         id="path64"
         style="fill:#231f20;fill-opacity:1;fill-rule:nonzero;stroke:none"
         d="m 12.143,100.513 20.553,0 0,-5.281 -20.553,0 0,5.281 z" /><g
         transform="translate(20.75,109.0313)"
         id="g66"><path
           inkscape:connector-curvature="0"
           id="path68"
           style="fill:#231f20;fill-opacity:1;fill-rule:nonzero;stroke:none"
           d="m 0,0 c -1.041,0 -1.672,-0.038 -1.893,-0.114 -0.218,-0.076 -0.33,-0.288 -0.33,-0.635 0,-0.339 0.127,-0.557 0.381,-0.653 C -1.588,-1.5 -0.975,-1.549 0,-1.549 l 6.982,0 c 1.016,0 1.651,0.051 1.905,0.153 0.254,0.101 0.381,0.322 0.381,0.66 0,0.33 -0.118,0.535 -0.35,0.615 C 8.686,-0.04 8.121,0 7.223,0 L 0,0 Z m -4.9,-1.46 1.488,-0.089 c -0.602,0.457 -1.051,0.961 -1.348,1.511 -0.297,0.55 -0.445,1.151 -0.445,1.803 0,0.796 0.213,1.483 0.641,2.063 0.427,0.579 0.919,0.942 1.478,1.085 0.559,0.144 1.508,0.216 2.844,0.216 l 7.097,0 c 1.532,0 2.622,-0.091 3.268,-0.274 0.648,-0.181 1.164,-0.553 1.549,-1.117 0.387,-0.562 0.578,-1.242 0.578,-2.037 0,-0.635 -0.148,-1.222 -0.445,-1.764 -0.297,-0.542 -0.737,-1.037 -1.323,-1.486 l 3.864,0 0,-5.129 -19.246,0 0,5.218 z" /></g><g
         transform="translate(12.1426,120.9775)"
         id="g70"><path
           inkscape:connector-curvature="0"
           id="path72"
           style="fill:#231f20;fill-opacity:1;fill-rule:nonzero;stroke:none"
           d="M 0,0 4.623,0 C 4.217,0.44 3.91,0.916 3.707,1.429 3.504,1.94 3.402,2.488 3.402,3.072 c 0,0.898 0.229,1.661 0.686,2.292 0.457,0.63 0.982,1.016 1.58,1.155 0.596,0.14 1.686,0.21 3.27,0.21 l 11.615,0 0,-5.129 -11.858,0 C 7.715,1.6 7.084,1.551 6.805,1.454 6.525,1.356 6.385,1.138 6.385,0.8 6.385,0.487 6.529,0.274 6.816,0.165 7.105,0.056 7.676,0 8.531,0 l 12.022,0 0,-5.129 L 0,-5.129 0,0 Z" /></g><path
         inkscape:connector-curvature="0"
         id="path74"
         style="fill:#231f20;fill-opacity:1;fill-rule:nonzero;stroke:none"
         d="m 15.85,134.752 16.846,0 0,-5.281 -16.846,0 0,5.281 z m -3.707,0 2.678,0 0,-5.281 -2.678,0 0,5.281 z" /><g
         transform="translate(24.6855,142.8008)"
         id="g76"><path
           inkscape:connector-curvature="0"
           id="path78"
           style="fill:#231f20;fill-opacity:1;fill-rule:nonzero;stroke:none"
           d="m 0,0 c 0.6,-0.82 1.104,-1.297 1.51,-1.428 0.406,-0.132 0.99,-0.197 1.752,-0.197 0.873,0 1.435,0.057 1.689,0.172 0.254,0.113 0.381,0.34 0.381,0.679 0,0.321 -0.1,0.531 -0.299,0.628 C 4.834,-0.049 4.313,0 3.465,0 L 0,0 Z m -2.311,-1.625 0,-4.812 -1.13,0 c -1.303,0 -2.309,0.151 -3.016,0.451 -0.705,0.3 -1.33,0.904 -1.871,1.809 -0.543,0.906 -0.813,2.082 -0.813,3.53 0,1.735 0.307,3.042 0.92,3.922 0.614,0.881 1.367,1.41 2.26,1.587 0.893,0.178 2.732,0.267 5.516,0.267 l 8.455,0 0,-4.989 -1.5,0 c 0.601,-0.314 1.053,-0.718 1.353,-1.212 0.301,-0.496 0.451,-1.086 0.451,-1.772 0,-0.896 -0.251,-1.72 -0.755,-2.469 -0.502,-0.75 -1.606,-1.124 -3.307,-1.124 l -1.383,0 c -1.262,0 -2.121,0.199 -2.578,0.597 -0.457,0.399 -0.99,1.384 -1.6,2.958 -0.66,1.685 -1.103,2.585 -1.332,2.704 C -2.869,-0.059 -3.336,0 -4.037,0 c -0.881,0 -1.455,-0.065 -1.721,-0.197 -0.267,-0.131 -0.4,-0.349 -0.4,-0.654 0,-0.346 0.113,-0.563 0.336,-0.647 0.224,-0.084 0.806,-0.127 1.746,-0.127 l 1.765,0 z" /></g><g
         transform="translate(25.3574,160.8359)"
         id="g80"><path
           inkscape:connector-curvature="0"
           id="path82"
           style="fill:#231f20;fill-opacity:1;fill-rule:nonzero;stroke:none"
           d="M 0,0 C -2.328,-0.271 -5.205,-0.542 -8.633,-0.814 -4.697,-1.358 -1.818,-1.701 0,-1.84 L 0,0 Z m -13.215,2.833 20.553,3.056 0,-5.462 -3.693,-0.286 0,-1.912 3.693,-0.322 0,-5.526 -20.553,2.726 0,7.726 z" /></g><g
         transform="translate(15.8496,172.6094)"
         id="g84"><path
           inkscape:connector-curvature="0"
           id="path86"
           style="fill:#231f20;fill-opacity:1;fill-rule:nonzero;stroke:none"
           d="m 0,0 2.215,-0.203 c -1.586,0.744 -2.426,1.824 -2.52,3.237 l 5.928,0 C 5.623,2.095 5.75,1.404 6.004,0.965 6.258,0.525 6.611,0.254 7.064,0.152 7.518,0.051 8.561,0 10.193,0 l 6.653,0 0,-5.129 L 0,-5.129 0,0 Z" /></g><g
         transform="translate(21.8281,183.2607)"
         id="g88"><path
           inkscape:connector-curvature="0"
           id="path90"
           style="fill:#231f20;fill-opacity:1;fill-rule:nonzero;stroke:none"
           d="m 0,0 -1.23,0 c -0.874,0 -1.436,-0.046 -1.69,-0.14 -0.254,-0.093 -0.381,-0.283 -0.381,-0.571 0,-0.355 0.108,-0.575 0.324,-0.66 0.215,-0.085 0.797,-0.127 1.747,-0.127 L 0,-1.498 0,0 Z m 2.742,5.142 0,-6.64 3.645,0 c 0.761,0 1.252,0.056 1.472,0.165 0.219,0.109 0.33,0.322 0.33,0.635 0,0.388 -0.146,0.649 -0.439,0.781 C 7.459,0.214 6.895,0.279 6.057,0.279 l -2.223,0 0,4.863 1.244,0 C 6.119,5.142 6.92,5.076 7.479,4.944 8.037,4.813 8.633,4.507 9.268,4.024 9.902,3.542 10.379,2.931 10.695,2.19 c 0.319,-0.741 0.477,-1.669 0.477,-2.787 0,-1.084 -0.156,-2.039 -0.469,-2.869 C 10.389,-4.296 9.959,-4.94 9.414,-5.401 8.867,-5.863 8.268,-6.183 7.611,-6.36 6.955,-6.538 6.002,-6.627 4.748,-6.627 l -4.912,0 c -1.473,0 -2.635,0.198 -3.486,0.597 -0.85,0.398 -1.502,1.049 -1.955,1.955 -0.452,0.906 -0.678,1.947 -0.678,3.123 0,1.439 0.271,2.626 0.818,3.56 0.545,0.936 1.27,1.592 2.17,1.969 0.902,0.376 2.17,0.565 3.803,0.565 l 2.234,0 z" /></g><g
         transform="translate(24.6855,196.2861)"
         id="g92"><path
           inkscape:connector-curvature="0"
           id="path94"
           style="fill:#231f20;fill-opacity:1;fill-rule:nonzero;stroke:none"
           d="m 0,0 c 0.6,-0.822 1.104,-1.297 1.51,-1.43 0.406,-0.131 0.99,-0.195 1.752,-0.195 0.873,0 1.435,0.057 1.689,0.17 0.254,0.115 0.381,0.342 0.381,0.68 0,0.322 -0.1,0.531 -0.299,0.629 C 4.834,-0.049 4.313,0 3.465,0 L 0,0 Z m -2.311,-1.625 0,-4.813 -1.13,0 c -1.303,0 -2.309,0.151 -3.016,0.452 -0.705,0.3 -1.33,0.904 -1.871,1.808 -0.543,0.907 -0.813,2.082 -0.813,3.53 0,1.736 0.307,3.043 0.92,3.923 0.614,0.879 1.367,1.409 2.26,1.586 0.893,0.178 2.732,0.268 5.516,0.268 l 8.455,0 0,-4.99 -1.5,0 c 0.601,-0.313 1.053,-0.717 1.353,-1.213 0.301,-0.494 0.451,-1.084 0.451,-1.77 0,-0.898 -0.251,-1.72 -0.755,-2.47 C 7.057,-6.063 5.953,-6.438 4.252,-6.438 l -1.383,0 c -1.262,0 -2.121,0.2 -2.578,0.598 -0.457,0.397 -0.99,1.383 -1.6,2.957 -0.66,1.686 -1.103,2.586 -1.332,2.705 C -2.869,-0.061 -3.336,0 -4.037,0 c -0.881,0 -1.455,-0.066 -1.721,-0.197 -0.267,-0.131 -0.4,-0.35 -0.4,-0.655 0,-0.345 0.113,-0.562 0.336,-0.646 0.224,-0.086 0.806,-0.127 1.746,-0.127 l 1.765,0 z" /></g><g
         transform="translate(19.709,220.1787)"
         id="g96"><path
           inkscape:connector-curvature="0"
           id="path98"
           style="fill:#231f20;fill-opacity:1;fill-rule:nonzero;stroke:none"
           d="m 0,0 0,-5.345 -1.867,0 c -1.176,0 -1.912,-0.051 -2.209,-0.152 -0.295,-0.102 -0.444,-0.343 -0.444,-0.724 0,-0.33 0.127,-0.554 0.381,-0.673 0.254,-0.118 0.905,-0.177 1.955,-0.177 l 9.864,0 c 0.924,0 1.529,0.059 1.822,0.177 0.291,0.119 0.437,0.356 0.437,0.711 0,0.39 -0.164,0.654 -0.494,0.794 -0.33,0.139 -0.974,0.209 -1.929,0.209 l -2.438,0 0,-1.079 -3.123,0 0,6.259 11.031,0 0,-3.358 -1.472,-0.496 c 0.634,-0.363 1.111,-0.823 1.427,-1.377 0.319,-0.555 0.477,-1.209 0.477,-1.963 0,-0.898 -0.217,-1.739 -0.654,-2.522 -0.436,-0.784 -0.975,-1.379 -1.618,-1.785 -0.644,-0.407 -1.318,-0.661 -2.025,-0.763 -0.707,-0.101 -1.767,-0.152 -3.18,-0.152 l -6.107,0 c -1.963,0 -3.389,0.105 -4.277,0.317 -0.889,0.212 -1.703,0.82 -2.446,1.822 -0.74,1.004 -1.109,2.3 -1.109,3.891 0,1.566 0.32,2.865 0.965,3.898 0.642,1.032 1.406,1.705 2.291,2.018 C -3.857,-0.156 -2.574,0 -0.889,0 L 0,0 Z" /></g><g
         transform="translate(24.6855,228.3027)"
         id="g100"><path
           inkscape:connector-curvature="0"
           id="path102"
           style="fill:#231f20;fill-opacity:1;fill-rule:nonzero;stroke:none"
           d="m 0,0 c 0.6,-0.821 1.104,-1.297 1.51,-1.429 0.406,-0.131 0.99,-0.196 1.752,-0.196 0.873,0 1.435,0.058 1.689,0.171 0.254,0.115 0.381,0.341 0.381,0.68 0,0.321 -0.1,0.531 -0.299,0.628 C 4.834,-0.049 4.313,0 3.465,0 L 0,0 Z m -2.311,-1.625 0,-4.812 -1.13,0 c -1.303,0 -2.309,0.151 -3.016,0.452 -0.705,0.299 -1.33,0.903 -1.871,1.808 -0.543,0.906 -0.813,2.082 -0.813,3.53 0,1.735 0.307,3.043 0.92,3.922 0.614,0.88 1.367,1.41 2.26,1.587 0.893,0.178 2.732,0.267 5.516,0.267 l 8.455,0 0,-4.989 -1.5,0 C 7.111,-0.174 7.563,-0.577 7.863,-1.073 8.164,-1.567 8.314,-2.158 8.314,-2.844 8.314,-3.741 8.063,-4.563 7.559,-5.313 7.057,-6.062 5.953,-6.437 4.252,-6.437 l -1.383,0 c -1.262,0 -2.121,0.2 -2.578,0.597 -0.457,0.398 -0.99,1.384 -1.6,2.958 -0.66,1.685 -1.103,2.586 -1.332,2.704 C -2.869,-0.06 -3.336,0 -4.037,0 c -0.881,0 -1.455,-0.065 -1.721,-0.196 -0.267,-0.132 -0.4,-0.35 -0.4,-0.655 0,-0.346 0.113,-0.562 0.336,-0.647 0.224,-0.085 0.806,-0.127 1.746,-0.127 l 1.765,0 z" /></g><g
         transform="translate(15.8496,240.2617)"
         id="g104"><path
           inkscape:connector-curvature="0"
           id="path106"
           style="fill:#231f20;fill-opacity:1;fill-rule:nonzero;stroke:none"
           d="M 0,0 1.602,-0.089 C 0.967,0.309 0.49,0.783 0.172,1.333 c -0.318,0.55 -0.477,1.177 -0.477,1.879 0,1.371 0.635,2.45 1.907,3.237 -0.635,0.432 -1.112,0.918 -1.43,1.46 -0.318,0.542 -0.477,1.143 -0.477,1.803 0,0.872 0.211,1.594 0.635,2.164 0.422,0.572 0.941,0.937 1.555,1.099 0.613,0.161 1.609,0.241 2.99,0.241 l 11.971,0 0,-4.977 -10.981,0 C 4.426,8.239 3.535,8.19 3.191,8.093 2.85,7.996 2.678,7.77 2.678,7.414 2.678,7.05 2.848,6.815 3.186,6.71 3.525,6.604 4.418,6.551 5.865,6.551 l 10.981,0 0,-4.977 -10.701,0 C 4.494,1.574 3.504,1.534 3.174,1.454 2.844,1.373 2.678,1.151 2.678,0.787 c 0,-0.228 0.088,-0.423 0.26,-0.584 0.173,-0.161 0.386,-0.25 0.634,-0.266 0.25,-0.017 0.782,-0.026 1.594,-0.026 l 11.68,0 0,-4.976 L 0,-5.065 0,0 Z" /></g><path
         inkscape:connector-curvature="0"
         id="path108"
         style="fill:#231f20;fill-opacity:1;fill-rule:nonzero;stroke:none"
         d="m 15.85,260.524 16.846,0 0,-5.281 -16.846,0 0,5.281 z m -3.707,0 2.678,0 0,-5.281 -2.678,0 0,5.281 z" /><g
         transform="translate(15.8496,267.582)"
         id="g110"><path
           inkscape:connector-curvature="0"
           id="path112"
           style="fill:#231f20;fill-opacity:1;fill-rule:nonzero;stroke:none"
           d="M 0,0 1.551,-0.089 C 0.932,0.283 0.469,0.738 0.158,1.276 c -0.308,0.537 -0.463,1.158 -0.463,1.86 0,0.88 0.207,1.599 0.621,2.158 0.416,0.559 0.938,0.918 1.569,1.079 0.631,0.161 1.681,0.241 3.154,0.241 l 11.807,0 0,-5.129 -11.666,0 C 4.02,1.485 3.313,1.447 3.059,1.371 2.805,1.295 2.678,1.083 2.678,0.736 c 0,-0.364 0.146,-0.592 0.437,-0.685 0.293,-0.093 1.074,-0.14 2.344,-0.14 l 11.387,0 0,-5.129 L 0,-5.218 0,0 Z" /></g><g
         transform="translate(20.3184,282.4746)"
         id="g114"><path
           inkscape:connector-curvature="0"
           id="path116"
           style="fill:#231f20;fill-opacity:1;fill-rule:nonzero;stroke:none"
           d="m 0,0 c -0.771,0 -1.262,-0.044 -1.473,-0.134 -0.213,-0.088 -0.318,-0.285 -0.318,-0.59 0,-0.296 0.121,-0.505 0.361,-0.629 0.242,-0.122 0.719,-0.183 1.43,-0.183 l 5.662,0 c 0.752,0 1.242,0.047 1.465,0.14 0.225,0.092 0.338,0.288 0.338,0.583 0,0.339 -0.137,0.559 -0.406,0.661 C 6.787,-0.051 6.174,0 5.217,0 L 0,0 Z m -4.469,5.142 12.975,0 c 1.752,0 2.883,-0.04 3.394,-0.121 0.514,-0.081 1.055,-0.366 1.625,-0.857 0.573,-0.491 1.008,-1.175 1.309,-2.05 0.301,-0.877 0.451,-1.978 0.451,-3.307 0,-1.634 -0.277,-2.946 -0.832,-3.936 -0.555,-0.99 -1.644,-1.502 -3.269,-1.536 l 0,4.977 c 0.746,0 1.117,0.27 1.117,0.812 0,0.39 -0.113,0.647 -0.342,0.774 -0.23,0.127 -0.709,0.191 -1.438,0.191 l -1.269,0 c 0.398,-0.441 0.699,-0.903 0.902,-1.391 0.205,-0.486 0.307,-0.996 0.307,-1.529 0,-0.923 -0.188,-1.682 -0.559,-2.279 C 9.529,-5.706 9.041,-6.115 8.436,-6.335 7.83,-6.555 6.969,-6.665 5.852,-6.665 l -6.12,0 c -1.599,0 -2.75,0.288 -3.453,0.863 -0.701,0.575 -1.052,1.451 -1.052,2.628 0,0.644 0.13,1.23 0.394,1.759 0.262,0.528 0.656,1 1.182,1.415 l -1.272,0.368 0,4.774 z" /></g><g
         transform="translate(12.1426,294.1787)"
         id="g118"><path
           inkscape:connector-curvature="0"
           id="path120"
           style="fill:#231f20;fill-opacity:1;fill-rule:nonzero;stroke:none"
           d="m 0,0 0,8.912 4.113,0 0,-3.567 3.897,0 0,3.339 3.91,0 0,-3.339 4.519,0 0,3.923 4.114,0 L 20.553,0 0,0 Z" /></g><g
         transform="translate(15.8496,310.0488)"
         id="g122"><path
           inkscape:connector-curvature="0"
           id="path124"
           style="fill:#231f20;fill-opacity:1;fill-rule:nonzero;stroke:none"
           d="M 0,0 1.551,-0.089 C 0.932,0.283 0.469,0.738 0.158,1.276 c -0.308,0.537 -0.463,1.158 -0.463,1.86 0,0.88 0.207,1.599 0.621,2.158 0.416,0.559 0.938,0.918 1.569,1.079 0.631,0.161 1.681,0.241 3.154,0.241 l 11.807,0 0,-5.129 -11.666,0 C 4.02,1.485 3.313,1.447 3.059,1.371 2.805,1.295 2.678,1.083 2.678,0.736 c 0,-0.364 0.146,-0.592 0.437,-0.685 0.293,-0.093 1.074,-0.14 2.344,-0.14 l 11.387,0 0,-5.129 L 0,-5.218 0,0 Z" /></g><g
         transform="translate(13.6016,323.835)"
         id="g126"><path
           inkscape:connector-curvature="0"
           id="path128"
           style="fill:#231f20;fill-opacity:1;fill-rule:nonzero;stroke:none"
           d="m 0,0 2.654,0 0,1.384 2.666,0 0,-1.384 9.014,0 c 1.107,0 1.727,0.057 1.854,0.172 0.126,0.113 0.189,0.59 0.189,1.428 l 2.717,0 0,-2.07 c 0,-1.168 -0.049,-2.002 -0.147,-2.501 -0.095,-0.499 -0.32,-0.939 -0.672,-1.32 -0.351,-0.381 -0.754,-0.618 -1.207,-0.711 -0.451,-0.093 -1.515,-0.14 -3.191,-0.14 l -8.557,0 0,-1.104 -2.666,0 0,1.104 L 0,-5.142 0,0 Z" /></g><g
         transform="translate(12.1426,331.4775)"
         id="g130"><path
           inkscape:connector-curvature="0"
           id="path132"
           style="fill:#231f20;fill-opacity:1;fill-rule:nonzero;stroke:none"
           d="M 0,0 4.623,0 C 4.217,0.44 3.91,0.916 3.707,1.428 3.504,1.94 3.402,2.488 3.402,3.072 c 0,0.898 0.229,1.661 0.686,2.291 0.457,0.631 0.982,1.016 1.58,1.157 0.596,0.138 1.686,0.209 3.27,0.209 l 11.615,0 0,-5.129 -11.858,0 C 7.715,1.6 7.084,1.551 6.805,1.453 6.525,1.356 6.385,1.139 6.385,0.8 6.385,0.486 6.529,0.275 6.816,0.165 7.105,0.055 7.676,0 8.531,0 l 12.022,0 0,-5.129 L 0,-5.129 0,0 Z" /></g><g
         transform="translate(15.8496,351.7148)"
         id="g134"><path
           inkscape:connector-curvature="0"
           id="path136"
           style="fill:#231f20;fill-opacity:1;fill-rule:nonzero;stroke:none"
           d="m 0,0 16.846,0 0,-5.218 -1.399,0.089 c 0.567,-0.355 0.994,-0.794 1.278,-1.313 0.285,-0.522 0.425,-1.121 0.425,-1.797 0,-0.771 -0.134,-1.409 -0.406,-1.917 -0.269,-0.508 -0.631,-0.882 -1.078,-1.124 -0.449,-0.241 -0.916,-0.391 -1.404,-0.45 -0.487,-0.06 -1.453,-0.089 -2.901,-0.089 l -11.361,0 0,5.129 11.463,0 c 1.312,0 2.092,0.04 2.336,0.121 0.246,0.08 0.369,0.298 0.369,0.653 0,0.381 -0.127,0.607 -0.381,0.679 -0.254,0.072 -1.07,0.108 -2.451,0.108 L 0,-5.129 0,0 Z" /></g><g
         transform="translate(21.2324,364.0293)"
         id="g138"><path
           inkscape:connector-curvature="0"
           id="path140"
           style="fill:#231f20;fill-opacity:1;fill-rule:nonzero;stroke:none"
           d="m 0,0 0,-4.545 -0.914,0 c -0.779,0 -1.272,-0.044 -1.481,-0.134 -0.207,-0.088 -0.31,-0.31 -0.31,-0.666 0,-0.288 0.096,-0.504 0.285,-0.647 0.191,-0.144 0.477,-0.216 0.857,-0.216 0.518,0 0.895,0.036 1.137,0.107 0.24,0.073 0.506,0.288 0.793,0.649 0.289,0.359 0.707,1.098 1.258,2.215 0.727,1.489 1.412,2.466 2.057,2.932 0.642,0.466 1.578,0.699 2.804,0.699 1.371,0 2.407,-0.178 3.104,-0.534 0.699,-0.355 1.236,-0.95 1.613,-1.783 0.377,-0.834 0.565,-1.839 0.565,-3.015 0,-1.304 -0.204,-2.418 -0.61,-3.346 -0.406,-0.926 -0.955,-1.564 -1.65,-1.91 -0.694,-0.347 -1.742,-0.521 -3.149,-0.521 l -0.812,0 0,4.545 1.066,0 c 0.907,0 1.494,0.058 1.766,0.171 0.269,0.115 0.406,0.341 0.406,0.68 0,0.364 -0.092,0.618 -0.273,0.761 -0.182,0.144 -0.565,0.216 -1.149,0.216 -0.804,0 -1.308,-0.093 -1.511,-0.279 -0.204,-0.194 -0.803,-1.19 -1.803,-2.983 -0.846,-1.507 -1.613,-2.425 -2.305,-2.755 -0.689,-0.33 -1.508,-0.495 -2.455,-0.495 -1.346,0 -2.338,0.177 -2.978,0.533 -0.639,0.355 -1.131,0.959 -1.479,1.808 -0.346,0.852 -0.52,1.839 -0.52,2.965 0,1.117 0.141,2.068 0.424,2.85 0.285,0.783 0.659,1.385 1.125,1.802 0.465,0.42 0.897,0.674 1.295,0.762 C -2.447,-0.044 -1.824,0 -0.979,0 L 0,0 Z" /></g><path
         inkscape:connector-curvature="0"
         id="path142"
         style="fill:#231f20;fill-opacity:1;fill-rule:nonzero;stroke:none"
         d="m 15.85,371.075 16.846,0 0,-5.281 -16.846,0 0,5.281 z m -3.707,0 2.678,0 0,-5.281 -2.678,0 0,5.281 z" /><g
         transform="translate(24.6855,379.123)"
         id="g144"><path
           inkscape:connector-curvature="0"
           id="path146"
           style="fill:#231f20;fill-opacity:1;fill-rule:nonzero;stroke:none"
           d="m 0,0 c 0.6,-0.821 1.104,-1.297 1.51,-1.429 0.406,-0.131 0.99,-0.196 1.752,-0.196 0.873,0 1.435,0.058 1.689,0.171 0.254,0.115 0.381,0.341 0.381,0.68 0,0.321 -0.1,0.531 -0.299,0.628 C 4.834,-0.049 4.313,0 3.465,0 L 0,0 Z m -2.311,-1.625 0,-4.812 -1.13,0 c -1.303,0 -2.309,0.151 -3.016,0.452 -0.705,0.299 -1.33,0.903 -1.871,1.808 -0.543,0.906 -0.813,2.082 -0.813,3.53 0,1.735 0.307,3.043 0.92,3.922 0.614,0.88 1.367,1.41 2.26,1.587 0.893,0.178 2.732,0.267 5.516,0.267 l 8.455,0 0,-4.989 -1.5,0 C 7.111,-0.174 7.563,-0.577 7.863,-1.073 8.164,-1.567 8.314,-2.158 8.314,-2.844 8.314,-3.741 8.063,-4.563 7.559,-5.313 7.057,-6.062 5.953,-6.437 4.252,-6.437 l -1.383,0 c -1.262,0 -2.121,0.2 -2.578,0.597 -0.457,0.398 -0.99,1.384 -1.6,2.958 -0.66,1.685 -1.103,2.586 -1.332,2.704 C -2.869,-0.06 -3.336,0 -4.037,0 c -0.881,0 -1.455,-0.065 -1.721,-0.196 -0.267,-0.132 -0.4,-0.35 -0.4,-0.655 0,-0.346 0.113,-0.562 0.336,-0.647 0.224,-0.085 0.806,-0.127 1.746,-0.127 l 1.765,0 z" /></g><g
         transform="translate(21.2324,396.4902)"
         id="g148"><path
           inkscape:connector-curvature="0"
           id="path150"
           style="fill:#231f20;fill-opacity:1;fill-rule:nonzero;stroke:none"
           d="m 0,0 0,-4.545 -0.914,0 c -0.779,0 -1.272,-0.044 -1.481,-0.134 -0.207,-0.088 -0.31,-0.31 -0.31,-0.666 0,-0.288 0.096,-0.504 0.285,-0.647 0.191,-0.144 0.477,-0.216 0.857,-0.216 0.518,0 0.895,0.036 1.137,0.107 0.24,0.073 0.506,0.288 0.793,0.649 0.289,0.359 0.707,1.098 1.258,2.215 0.727,1.489 1.412,2.466 2.057,2.932 0.642,0.466 1.578,0.699 2.804,0.699 1.371,0 2.407,-0.178 3.104,-0.534 0.699,-0.355 1.236,-0.95 1.613,-1.783 0.377,-0.834 0.565,-1.839 0.565,-3.015 0,-1.304 -0.204,-2.418 -0.61,-3.346 -0.406,-0.926 -0.955,-1.564 -1.65,-1.91 -0.694,-0.347 -1.742,-0.521 -3.149,-0.521 l -0.812,0 0,4.545 1.066,0 c 0.907,0 1.494,0.058 1.766,0.171 0.269,0.115 0.406,0.341 0.406,0.68 0,0.364 -0.092,0.618 -0.273,0.761 -0.182,0.144 -0.565,0.216 -1.149,0.216 -0.804,0 -1.308,-0.093 -1.511,-0.279 -0.204,-0.194 -0.803,-1.19 -1.803,-2.983 -0.846,-1.507 -1.613,-2.425 -2.305,-2.755 -0.689,-0.33 -1.508,-0.495 -2.455,-0.495 -1.346,0 -2.338,0.177 -2.978,0.533 -0.639,0.355 -1.131,0.959 -1.479,1.808 -0.346,0.852 -0.52,1.839 -0.52,2.965 0,1.117 0.141,2.068 0.424,2.85 0.285,0.783 0.659,1.385 1.125,1.802 0.465,0.42 0.897,0.674 1.295,0.762 C -2.447,-0.044 -1.824,0 -0.979,0 L 0,0 Z" /></g><g
         transform="translate(13.6016,403.6631)"
         id="g152"><path
           inkscape:connector-curvature="0"
           id="path154"
           style="fill:#231f20;fill-opacity:1;fill-rule:nonzero;stroke:none"
           d="m 0,0 2.654,0 0,1.384 2.666,0 0,-1.384 9.014,0 c 1.107,0 1.727,0.057 1.854,0.172 0.126,0.113 0.189,0.59 0.189,1.428 l 2.717,0 0,-2.07 c 0,-1.168 -0.049,-2.002 -0.147,-2.501 -0.095,-0.499 -0.32,-0.939 -0.672,-1.32 -0.351,-0.381 -0.754,-0.618 -1.207,-0.711 -0.451,-0.093 -1.515,-0.14 -3.191,-0.14 l -8.557,0 0,-1.104 -2.666,0 0,1.104 L 0,-5.142 0,0 Z" /></g><g
         transform="translate(21.2324,416.6504)"
         id="g156"><path
           inkscape:connector-curvature="0"
           id="path158"
           style="fill:#231f20;fill-opacity:1;fill-rule:nonzero;stroke:none"
           d="m 0,0 0,-4.545 -0.914,0 c -0.779,0 -1.272,-0.044 -1.481,-0.134 -0.207,-0.088 -0.31,-0.31 -0.31,-0.666 0,-0.288 0.096,-0.504 0.285,-0.647 0.191,-0.144 0.477,-0.216 0.857,-0.216 0.518,0 0.895,0.036 1.137,0.107 0.24,0.073 0.506,0.288 0.793,0.649 0.289,0.359 0.707,1.098 1.258,2.215 0.727,1.489 1.412,2.466 2.057,2.932 0.642,0.466 1.578,0.699 2.804,0.699 1.371,0 2.407,-0.178 3.104,-0.534 0.699,-0.355 1.236,-0.95 1.613,-1.783 0.377,-0.834 0.565,-1.839 0.565,-3.015 0,-1.304 -0.204,-2.418 -0.61,-3.346 -0.406,-0.926 -0.955,-1.564 -1.65,-1.91 -0.694,-0.347 -1.742,-0.521 -3.149,-0.521 l -0.812,0 0,4.545 1.066,0 c 0.907,0 1.494,0.058 1.766,0.171 0.269,0.115 0.406,0.341 0.406,0.68 0,0.364 -0.092,0.618 -0.273,0.761 -0.182,0.144 -0.565,0.216 -1.149,0.216 -0.804,0 -1.308,-0.093 -1.511,-0.279 -0.204,-0.194 -0.803,-1.19 -1.803,-2.983 -0.846,-1.507 -1.613,-2.425 -2.305,-2.755 -0.689,-0.33 -1.508,-0.495 -2.455,-0.495 -1.346,0 -2.338,0.177 -2.978,0.533 -0.639,0.355 -1.131,0.959 -1.479,1.808 -0.346,0.852 -0.52,1.839 -0.52,2.965 0,1.117 0.141,2.068 0.424,2.85 0.285,0.783 0.659,1.385 1.125,1.802 0.465,0.42 0.897,0.674 1.295,0.762 C -2.447,-0.044 -1.824,0 -0.979,0 L 0,0 Z" /></g></g><g
       id="g12146"><g
         transform="matrix(1.2559069,0,0,1.2559069,-116.91948,96.864496)"
         id="g10633"><g
           id="g3034"
           transform="translate(89.904762,193.52381)"><g
             id="g3036" /><g
             id="g3042"><g
               clip-path="url(#clipPath3038)"
               id="g3044"><g
                 transform="translate(239.3955,16.5332)"
                 id="g3046"><path
                   d="M 0,0 C 6.184,-4.447 12.149,-9.438 17.682,-5.75 22.78,-3.254 31.566,1.519 34.496,6.617 39.812,16.163 1.835,17.244 -8.899,14.317 -19.634,11.391 -5.641,4.664 0,0"
                   style="fill:#fcfdfd;fill-opacity:1;fill-rule:nonzero;stroke:none"
                   id="path3048"
                   inkscape:connector-curvature="0" /></g><g
                 transform="translate(239.4434,16.6396)"
                 id="g3050"><path
                   d="M 0,0 C 6.117,-4.375 11.933,-9.386 17.496,-5.822 22.605,-3.403 31.438,1.474 34.365,6.527 39.826,15.955 1.373,16.971 -8.865,14.184 -19.6,11.303 -5.589,4.576 0,0"
                   style="fill:#f3f0ee;fill-opacity:1;fill-rule:nonzero;stroke:none"
                   id="path3052"
                   inkscape:connector-curvature="0" /></g><g
                 transform="translate(239.4922,16.7461)"
                 id="g3054"><path
                   d="M 0,0 C 6.049,-4.302 11.716,-9.334 17.31,-5.895 22.429,-3.554 31.273,1.448 34.232,6.437 39.775,15.781 0.911,16.697 -8.832,14.049 -19.567,11.216 -5.537,4.489 0,0"
                   style="fill:#eae4df;fill-opacity:1;fill-rule:nonzero;stroke:none"
                   id="path3056"
                   inkscape:connector-curvature="0" /></g><g
                 transform="translate(239.541,16.8535)"
                 id="g3058"><path
                   d="m 0,0 c 5.981,-4.23 11.498,-9.283 17.123,-5.968 5.13,2.264 13.987,7.39 16.978,12.314 5.626,9.262 -33.652,10.077 -42.9,7.568 C -19.534,11.127 -5.486,4.4 0,0"
                   style="fill:#e2d8d2;fill-opacity:1;fill-rule:nonzero;stroke:none"
                   id="path3060"
                   inkscape:connector-curvature="0" /></g><g
                 transform="translate(239.5889,16.96)"
                 id="g3062"><path
                   d="m 0,0 c 5.915,-4.158 11.281,-9.231 16.938,-6.039 5.139,2.185 14.01,7.436 17.031,12.294 5.709,9.182 -33.982,9.894 -42.734,7.525 C -19.501,11.039 -5.435,4.313 0,0"
                   style="fill:#d9cdc5;fill-opacity:1;fill-rule:nonzero;stroke:none"
                   id="path3064"
                   inkscape:connector-curvature="0" /></g><g
                 transform="translate(239.6377,17.0664)"
                 id="g3066"><path
                   d="m 0,0 c 5.848,-4.086 11.064,-9.18 16.751,-6.111 5.15,2.108 14.027,7.487 17.086,12.276 5.78,9.106 -34.312,9.711 -42.568,7.481 C -19.468,10.951 -5.383,4.225 0,0"
                   style="fill:#d1c2b8;fill-opacity:1;fill-rule:nonzero;stroke:none"
                   id="path3068"
                   inkscape:connector-curvature="0" /></g><g
                 transform="translate(239.6855,17.1729)"
                 id="g3070"><path
                   d="m 0,0 c 5.78,-4.013 10.848,-9.127 16.565,-6.184 5.162,2.031 14.056,7.532 17.14,12.258 5.874,9.02 -34.642,9.529 -42.401,7.438 C -19.434,10.863 -5.331,4.137 0,0"
                   style="fill:#c9b7ac;fill-opacity:1;fill-rule:nonzero;stroke:none"
                   id="path3072"
                   inkscape:connector-curvature="0" /></g><g
                 transform="translate(239.7344,17.2793)"
                 id="g3074"><path
                   d="m 0,0 c 5.713,-3.94 10.63,-9.076 16.38,-6.256 5.17,1.953 14.083,7.575 17.193,12.24 5.966,8.932 -34.971,9.345 -42.236,7.394 C -19.401,10.776 -5.279,4.05 0,0"
                   style="fill:#c2ada1;fill-opacity:1;fill-rule:nonzero;stroke:none"
                   id="path3076"
                   inkscape:connector-curvature="0" /></g><g
                 transform="translate(239.7822,17.3857)"
                 id="g3078"><path
                   d="m 0,0 c 5.646,-3.868 10.414,-9.023 16.193,-6.328 5.182,1.876 14.113,7.619 17.249,12.222 6.059,8.844 -35.301,9.162 -42.071,7.35 C -19.367,10.688 -5.228,3.962 0,0"
                   style="fill:#baa396;fill-opacity:1;fill-rule:nonzero;stroke:none"
                   id="path3080"
                   inkscape:connector-curvature="0" /></g><g
                 transform="translate(239.8311,17.4922)"
                 id="g3082"><path
                   d="M 0,0 C 5.578,-3.796 10.196,-8.972 16.007,-6.4 21.199,-4.602 30.138,1.27 33.31,5.804 39.443,14.572 -2.322,14.782 -8.596,13.11 -19.335,10.601 -5.176,3.874 0,0"
                   style="fill:#b39a8c;fill-opacity:1;fill-rule:nonzero;stroke:none"
                   id="path3084"
                   inkscape:connector-curvature="0" /></g><g
                 transform="translate(239.8789,17.5986)"
                 id="g3086"><path
                   d="m 0,0 c 5.512,-3.723 9.979,-8.92 15.821,-6.473 5.202,1.722 14.157,7.716 17.358,12.187 6.219,8.685 -35.962,8.795 -41.741,7.262 C -19.301,10.513 -5.124,3.786 0,0"
                   style="fill:#ac9183;fill-opacity:1;fill-rule:nonzero;stroke:none"
                   id="path3088"
                   inkscape:connector-curvature="0" /></g><g
                 transform="translate(239.9277,17.7061)"
                 id="g3090"><path
                   d="m 0,0 c 5.444,-3.651 9.763,-8.869 15.636,-6.545 5.212,1.643 14.18,7.762 17.41,12.167 6.307,8.604 -36.292,8.612 -41.573,7.219 C -19.269,10.425 -5.073,3.698 0,0"
                   style="fill:#a5897a;fill-opacity:1;fill-rule:nonzero;stroke:none"
                   id="path3092"
                   inkscape:connector-curvature="0" /></g><g
                 transform="translate(239.9756,17.8125)"
                 id="g3094"><path
                   d="m 0,0 c 5.377,-3.579 9.546,-8.817 15.449,-6.617 5.224,1.565 14.208,7.807 17.466,12.149 6.394,8.52 -36.622,8.429 -41.408,7.175 C -19.234,10.337 -5.021,3.61 0,0"
                   style="fill:#9f8171;fill-opacity:1;fill-rule:nonzero;stroke:none"
                   id="path3096"
                   inkscape:connector-curvature="0" /></g><g
                 transform="translate(240.0244,17.9189)"
                 id="g3098"><path
                   d="M 0,0 C 5.31,-3.507 9.328,-8.766 15.264,-6.689 20.496,-5.201 29.496,1.166 32.782,5.442 39.265,13.879 -4.17,13.688 -8.46,12.572 -19.202,10.249 -4.97,3.522 0,0"
                   style="fill:#987969;fill-opacity:1;fill-rule:nonzero;stroke:none"
                   id="path3100"
                   inkscape:connector-curvature="0" /></g><g
                 transform="translate(240.0723,18.0254)"
                 id="g3102"><path
                   d="M 0,0 C 5.243,-3.435 9.112,-8.714 15.078,-6.762 20.321,-5.351 29.337,1.14 32.651,5.352 39.223,13.704 -4.631,13.414 -8.426,12.438 -19.168,10.161 -4.918,3.435 0,0"
                   style="fill:#927262;fill-opacity:1;fill-rule:nonzero;stroke:none"
                   id="path3104"
                   inkscape:connector-curvature="0" /></g><g
                 transform="translate(240.1211,18.1318)"
                 id="g3106"><path
                   d="M 0,0 C 5.176,-3.361 8.895,-8.661 14.892,-6.834 20.145,-5.501 29.178,1.112 32.52,5.262 39.181,13.53 -5.093,13.141 -8.393,12.305 -19.135,10.073 -4.866,3.347 0,0"
                   style="fill:#8c6a5a;fill-opacity:1;fill-rule:nonzero;stroke:none"
                   id="path3108"
                   inkscape:connector-curvature="0" /></g><g
                 transform="translate(240.1689,18.2383)"
                 id="g3110"><path
                   d="M 0,0 C 5.108,-3.289 8.678,-8.609 14.706,-6.906 19.97,-5.65 29.019,1.086 32.388,5.171 39.138,13.355 -5.555,12.867 -8.358,12.17 -19.102,9.986 -4.814,3.26 0,0"
                   style="fill:#866454;fill-opacity:1;fill-rule:nonzero;stroke:none"
                   id="path3112"
                   inkscape:connector-curvature="0" /></g><g
                 transform="translate(240.2178,18.3447)"
                 id="g3114"><path
                   d="m 0,0 c 5.041,-3.217 8.461,-8.558 14.52,-6.979 5.274,1.179 14.339,8.039 17.736,12.06 6.841,8.1 -38.273,7.513 -40.581,6.955 C -19.068,9.898 -4.764,3.172 0,0"
                   style="fill:#815d4d;fill-opacity:1;fill-rule:nonzero;stroke:none"
                   id="path3116"
                   inkscape:connector-curvature="0" /></g><g
                 transform="translate(240.2656,18.4521)"
                 id="g3118"><path
                   d="m 0,0 c 4.975,-3.146 8.244,-8.507 14.334,-7.051 5.284,1.101 14.368,8.082 17.79,12.04 6.932,8.017 -38.603,7.33 -40.414,6.912 C -19.035,9.81 -4.711,3.083 0,0"
                   style="fill:#7b5748;fill-opacity:1;fill-rule:nonzero;stroke:none"
                   id="path3120"
                   inkscape:connector-curvature="0" /></g><g
                 transform="translate(240.3145,18.5586)"
                 id="g3122"><path
                   d="M 0,0 C 4.907,-3.072 8.026,-8.455 14.147,-7.123 19.442,-6.101 28.543,1.004 31.992,4.899 39.015,12.83 -6.94,12.046 -8.257,11.768 -19.002,9.723 -4.66,2.996 0,0"
                   style="fill:#765142;fill-opacity:1;fill-rule:nonzero;stroke:none"
                   id="path3124"
                   inkscape:connector-curvature="0" /></g><g
                 transform="translate(240.3623,18.665)"
                 id="g3126"><path
                   d="M 0,0 C 4.84,-3 7.811,-8.403 13.962,-7.195 19.267,-6.25 28.386,0.977 31.86,4.809 38.975,12.653 -7.402,11.772 -8.223,11.633 -18.969,9.635 -4.607,2.908 0,0"
                   style="fill:#714c3d;fill-opacity:1;fill-rule:nonzero;stroke:none"
                   id="path3128"
                   inkscape:connector-curvature="0" /></g><g
                 transform="translate(232.2217,30.2705)"
                 id="g3130"><path
                   d="m 0,0 c -10.746,-1.952 3.633,-8.679 8.189,-11.499 4.773,-2.928 7.593,-8.352 13.776,-7.268 5.315,0.869 14.481,8.19 17.953,11.987 C 47.186,0.922 0.325,0 0,0"
                   style="fill:#6c4638;fill-opacity:1;fill-rule:nonzero;stroke:none"
                   id="path3132"
                   inkscape:connector-curvature="0" /></g></g></g></g><g
           id="g3134"
           transform="translate(344.02386,206.06381)"><path
             d="m 0,0 c -5.904,0 -27.362,6.017 -24.638,31.676 4.769,18.052 22.591,17.157 23.73,17.143 C 0.23,48.808 24.069,48.252 23.274,27.702 23.274,9.196 7.606,0 0,0"
             style="fill:#e1701a;fill-opacity:1;fill-rule:nonzero;stroke:none"
             id="path3136"
             inkscape:connector-curvature="0" /></g><g
           id="g3138"
           transform="translate(332.37356,224.08631)"><path
             d="m 0,0 c 0.505,-1.883 -0.197,-3.41 -1.57,-3.41 -1.373,0 -2.895,1.527 -3.4,3.41 -0.504,1.884 0.199,3.41 1.573,3.41 C -2.025,3.41 -0.505,1.884 0,0"
             style="fill:#231f20;fill-opacity:1;fill-rule:nonzero;stroke:none"
             id="path3140"
             inkscape:connector-curvature="0" /></g><g
           id="g3142"
           transform="translate(358.53756,222.24451)"><path
             d="M 0,0 C -1.025,-1.639 -2.531,-2.292 -3.365,-1.457 -4.199,-0.623 -4.044,1.38 -3.02,3.019 -1.993,4.657 -0.487,5.311 0.348,4.475 1.182,3.642 1.025,1.639 0,0"
             style="fill:#231f20;fill-opacity:1;fill-rule:nonzero;stroke:none"
             id="path3144"
             inkscape:connector-curvature="0" /></g><g
           id="g3146"
           transform="translate(364.70266,232.50231)"><path
             d="M 0,0 C -1.025,-1.639 -2.531,-2.291 -3.365,-1.457 -4.199,-0.623 -4.044,1.381 -3.02,3.02 -1.993,4.658 -0.487,5.311 0.348,4.476 1.182,3.643 1.025,1.639 0,0"
             style="fill:#231f20;fill-opacity:1;fill-rule:nonzero;stroke:none"
             id="path3148"
             inkscape:connector-curvature="0" /></g><g
           id="g3150"
           transform="translate(352.32856,211.15761)"><path
             d="M 0,0 C -1.025,-1.638 -2.531,-2.292 -3.365,-1.457 -4.199,-0.623 -4.044,1.38 -3.02,3.019 -1.993,4.657 -0.487,5.311 0.348,4.476 1.182,3.642 1.025,1.639 0,0"
             style="fill:#231f20;fill-opacity:1;fill-rule:nonzero;stroke:none"
             id="path3152"
             inkscape:connector-curvature="0" /></g><g
           id="g3154"
           transform="translate(348.33836,239.70061)"><path
             d="m 0,0 c 0,-1.271 -1.779,-2.302 -3.975,-2.302 -2.194,0 -3.973,1.031 -3.973,2.302 0,1.271 1.779,2.301 3.973,2.301 C -1.779,2.301 0,1.271 0,0"
             style="fill:#231f20;fill-opacity:1;fill-rule:nonzero;stroke:none"
             id="path3156"
             inkscape:connector-curvature="0" /></g><g
           id="g3158"
           transform="translate(360.21136,246.51701)"><path
             d="m 0,0 c 0,-1.11 -1.779,-2.009 -3.975,-2.009 -2.194,0 -3.973,0.899 -3.973,2.009 0,1.109 1.779,2.009 3.973,2.009 C -1.779,2.009 0,1.109 0,0"
             style="fill:#231f20;fill-opacity:1;fill-rule:nonzero;stroke:none"
             id="path3160"
             inkscape:connector-curvature="0" /></g><g
           id="g3162"
           transform="translate(347.57666,246.57361)"><path
             d="m 0,0 c 0,-1.142 -1.779,-2.065 -3.975,-2.065 -2.194,0 -3.973,0.923 -3.973,2.065 0,1.141 1.779,2.065 3.973,2.065 C -1.779,2.065 0,1.141 0,0"
             style="fill:#231f20;fill-opacity:1;fill-rule:nonzero;stroke:none"
             id="path3164"
             inkscape:connector-curvature="0" /></g><g
           id="g3166"
           transform="translate(346.70456,252.56581)"><path
             d="m 0,0 c 0,-0.938 -1.678,-1.699 -3.747,-1.699 -2.069,0 -3.747,0.761 -3.747,1.699 0,0.938 1.678,1.699 3.747,1.699 C -1.678,1.699 0,0.938 0,0"
             style="fill:#231f20;fill-opacity:1;fill-rule:nonzero;stroke:none"
             id="path3168"
             inkscape:connector-curvature="0" /></g><g
           id="g3170"
           transform="translate(335.42336,234.24841)"><path
             d="M 0,0 C 7.011,-3.974 10.871,-2.299 15.412,-0.142 11.098,-3.32 9.622,-7.181 8.94,-12.403 l 0,0.113 C 7.124,-7.408 5.493,-3.732 0,0"
             style="fill:#c9531f;fill-opacity:1;fill-rule:nonzero;stroke:none"
             id="path3172"
             inkscape:connector-curvature="0" /></g><g
           id="g3174"
           transform="translate(361.39406,239.55701)"><path
             d="M 0,0 C 1.663,0.465 3.708,0.215 5.51,-0.493 5.098,1.543 4.39,3.313 3.478,4.859 3.037,2.99 1.33,1.182 0,0"
             style="fill:#c9531f;fill-opacity:1;fill-rule:nonzero;stroke:none"
             id="path3176"
             inkscape:connector-curvature="0" /></g><g
           id="g3178"
           transform="translate(326.53956,240.57851)"><path
             d="M 0,0 C -1.612,1.611 -2.785,3.404 -3.375,5.324 -4.68,3.535 -5.811,1.396 -6.658,-1.172 -4.781,0.238 -2.06,0.839 0,0"
             style="fill:#c9531f;fill-opacity:1;fill-rule:nonzero;stroke:none"
             id="path3180"
             inkscape:connector-curvature="0" /></g><g
           id="g3182"
           transform="translate(344.70456,212.64881)"><path
             d="m 0,0 c -0.861,-2.35 -2.278,-4.625 -4.295,-6.121 1.468,-0.323 2.721,-0.464 3.614,-0.464 1.465,0 3.231,0.345 5.124,1.028 C 2.444,-4.331 0.967,-2.484 0,0"
             style="fill:#c9531f;fill-opacity:1;fill-rule:nonzero;stroke:none"
             id="path3184"
             inkscape:connector-curvature="0" /></g><g
           id="g3186"
           transform="translate(344.02386,206.06381)"><path
             d="m 0,0 c -5.904,0 -27.362,6.017 -24.638,31.676 4.769,18.052 22.591,17.157 23.73,17.143 C 0.23,48.808 24.069,48.252 23.274,27.702 23.274,9.196 7.606,0 0,0 Z"
             style="fill:none;stroke:#231f20;stroke-width:0.39811867;stroke-linecap:butt;stroke-linejoin:miter;stroke-miterlimit:4;stroke-opacity:1;stroke-dasharray:none"
             id="path3188"
             inkscape:connector-curvature="0" /></g><g
           id="g3190"
           transform="translate(334.94966,246.59121)"><path
             d="m 0,0 c 0,-1.15 -1.705,-2.083 -3.81,-2.083 -2.103,0 -3.808,0.933 -3.808,2.083 0,1.15 1.705,2.083 3.808,2.083 C -1.705,2.083 0,1.15 0,0"
             style="fill:#231f20;fill-opacity:1;fill-rule:nonzero;stroke:none"
             id="path3192"
             inkscape:connector-curvature="0" /></g><g
           id="g3194"
           transform="translate(329.47316,247.11071)"><path
             d="m 0,0 c 0,-0.173 -0.132,-0.313 -0.296,-0.313 -0.163,0 -0.296,0.14 -0.296,0.313 0,0.174 0.133,0.313 0.296,0.313 C -0.132,0.313 0,0.174 0,0"
             style="fill:#ffffff;fill-opacity:1;fill-rule:nonzero;stroke:none"
             id="path3196"
             inkscape:connector-curvature="0" /></g><g
           id="g3198"
           transform="translate(343.75046,252.16931)"><path
             d="m 0,0 c 0,-0.22 -0.177,-0.397 -0.396,-0.397 -0.219,0 -0.397,0.177 -0.397,0.397 0,0.219 0.178,0.396 0.397,0.396 C -0.177,0.396 0,0.219 0,0"
             style="fill:#ffffff;fill-opacity:1;fill-rule:nonzero;stroke:none"
             id="path3200"
             inkscape:connector-curvature="0" /></g><g
           id="g3202"
           transform="translate(355.96626,246.92611)"><path
             d="m 0,0 c 0,-0.227 -0.157,-0.409 -0.352,-0.409 -0.194,0 -0.351,0.182 -0.351,0.409 0,0.225 0.157,0.408 0.351,0.408 C -0.157,0.408 0,0.225 0,0"
             style="fill:#ffffff;fill-opacity:1;fill-rule:nonzero;stroke:none"
             id="path3204"
             inkscape:connector-curvature="0" /></g><g
           id="g3206"
           transform="translate(343.51116,246.93791)"><path
             d="m 0,0 c 0,-0.201 -0.153,-0.364 -0.344,-0.364 -0.189,0 -0.344,0.163 -0.344,0.364 0,0.2 0.155,0.363 0.344,0.363 C -0.153,0.363 0,0.2 0,0"
             style="fill:#ffffff;fill-opacity:1;fill-rule:nonzero;stroke:none"
             id="path3208"
             inkscape:connector-curvature="0" /></g><g
           id="g3210"
           transform="translate(344.36276,240.05601)"><path
             d="m 0,0 c 0,-0.153 -0.216,-0.277 -0.481,-0.277 -0.268,0 -0.483,0.124 -0.483,0.277 0,0.153 0.215,0.278 0.483,0.278 C -0.216,0.278 0,0.153 0,0"
             style="fill:#ffffff;fill-opacity:1;fill-rule:nonzero;stroke:none"
             id="path3212"
             inkscape:connector-curvature="0" /></g><g
           id="g3214"
           transform="translate(331.08056,222.12931)"><path
             d="m 0,0 c 0,-0.283 -0.178,-0.512 -0.397,-0.512 -0.22,0 -0.398,0.229 -0.398,0.512 0,0.281 0.178,0.51 0.398,0.51 C -0.178,0.51 0,0.281 0,0"
             style="fill:#ffffff;fill-opacity:1;fill-rule:nonzero;stroke:none"
             id="path3216"
             inkscape:connector-curvature="0" /></g><g
           id="g3218"
           transform="translate(357.53656,222.24351)"><path
             d="m 0,0 c 0,-0.234 -0.114,-0.425 -0.256,-0.425 -0.14,0 -0.255,0.191 -0.255,0.425 0,0.233 0.115,0.424 0.255,0.424 C -0.114,0.424 0,0.233 0,0"
             style="fill:#ffffff;fill-opacity:1;fill-rule:nonzero;stroke:none"
             id="path3220"
             inkscape:connector-curvature="0" /></g><g
           id="g3222"
           transform="translate(363.32466,232.68791)"><path
             d="m 0,0 c 0,-0.22 -0.152,-0.397 -0.341,-0.397 -0.188,0 -0.341,0.177 -0.341,0.397 0,0.219 0.153,0.396 0.341,0.396 C -0.152,0.396 0,0.219 0,0"
             style="fill:#ffffff;fill-opacity:1;fill-rule:nonzero;stroke:none"
             id="path3224"
             inkscape:connector-curvature="0" /></g><g
           id="g3226"
           transform="translate(351.35106,211.14001)"><path
             d="m 0,0 c 0,-0.269 -0.217,-0.486 -0.484,-0.486 -0.269,0 -0.486,0.217 -0.486,0.486 0,0.269 0.217,0.487 0.486,0.487 C -0.217,0.487 0,0.269 0,0"
             style="fill:#ffffff;fill-opacity:1;fill-rule:nonzero;stroke:none"
             id="path3228"
             inkscape:connector-curvature="0" /></g></g><g
         transform="matrix(1.1623129,0,0,1.1623129,-28.122037,-63.009323)"
         id="g11292"><g
           id="g2954"
           transform="translate(101.6543,390.3567)"><path
             d="m 0,0 c 0.72,-0.072 1.584,-0.144 2.952,-0.144 5.112,0 8.281,2.592 8.281,6.769 0,3.6 -2.448,6.048 -7.344,6.048 C 1.944,12.673 0.648,12.529 0,12.385 L 0,0 Z m -12.889,21.458 c 3.529,0.576 8.641,1.008 16.057,1.008 6.985,0 11.953,-1.224 15.338,-3.817 3.312,-2.447 5.544,-6.768 5.544,-11.736 0,-4.897 -1.656,-9.217 -4.68,-11.954 -3.961,-3.528 -9.649,-5.04 -16.202,-5.04 -1.224,0 -2.376,0.072 -3.168,0.144 l 0,-16.489 -12.889,0 0,47.884 z"
             style="fill:#231f20;fill-opacity:1;fill-rule:nonzero;stroke:none"
             id="path2956"
             inkscape:connector-curvature="0" /></g><g
           id="g2958"
           transform="translate(101.6543,390.3567)"><path
             d="m 0,0 c 0.72,-0.072 1.584,-0.144 2.952,-0.144 5.112,0 8.281,2.592 8.281,6.769 0,3.6 -2.448,6.048 -7.344,6.048 C 1.944,12.673 0.648,12.529 0,12.385 L 0,0 Z m -12.889,21.458 c 3.529,0.576 8.641,1.008 16.057,1.008 6.985,0 11.953,-1.224 15.338,-3.817 3.312,-2.447 5.544,-6.768 5.544,-11.736 0,-4.897 -1.656,-9.217 -4.68,-11.954 -3.961,-3.528 -9.649,-5.04 -16.202,-5.04 -1.224,0 -2.376,0.072 -3.168,0.144 l 0,-16.489 -12.889,0 0,47.884 z"
             style="fill:none;stroke:#231f20;stroke-width:4.30176783;stroke-linecap:butt;stroke-linejoin:miter;stroke-miterlimit:4;stroke-opacity:1;stroke-dasharray:none"
             id="path2960"
             inkscape:connector-curvature="0" /></g><g
           id="g2962"
           transform="translate(151.9834,384.8123)"><path
             d="m 0,0 -2.232,8.713 c -0.72,2.736 -1.657,6.696 -2.376,9.577 l -0.145,0 c -0.72,-2.881 -1.439,-6.913 -2.16,-9.649 L -9.001,0 0,0 Z m -10.729,-9.649 -2.736,-11.233 -13.466,0 14.114,48.532 17.281,0 14.474,-48.532 -14.042,0 -3.096,11.233 -12.529,0 z"
             style="fill:#231f20;fill-opacity:1;fill-rule:nonzero;stroke:none"
             id="path2964"
             inkscape:connector-curvature="0" /></g><g
           id="g2966"
           transform="translate(151.9834,384.8123)"><path
             d="m 0,0 -2.232,8.713 c -0.72,2.736 -1.657,6.696 -2.376,9.577 l -0.145,0 c -0.72,-2.881 -1.439,-6.913 -2.16,-9.649 L -9.001,0 0,0 Z m -10.729,-9.649 -2.736,-11.233 -13.466,0 14.114,48.532 17.281,0 14.474,-48.532 -14.042,0 -3.096,11.233 -12.529,0 z"
             style="fill:none;stroke:#231f20;stroke-width:4.30176783;stroke-linecap:butt;stroke-linejoin:miter;stroke-miterlimit:4;stroke-opacity:1;stroke-dasharray:none"
             id="path2968"
             inkscape:connector-curvature="0" /></g><g
           id="g2970"
           transform="translate(217.0723,366.2347)"><path
             d="m 0,0 c -3.6,-1.224 -10.368,-2.808 -16.705,-2.808 -9.577,0 -16.058,2.376 -20.45,6.552 -4.536,4.321 -6.912,10.585 -6.912,17.57 0.072,16.849 12.6,25.418 28.37,25.418 6.552,0 11.521,-1.152 14.042,-2.376 L -4.248,33.987 c -2.736,1.152 -5.977,2.016 -11.521,2.016 -7.993,0 -14.618,-4.176 -14.618,-14.041 0,-9.073 5.833,-14.329 13.826,-14.329 1.728,0 3.457,0.216 4.033,0.432 l 0,8.352 -6.481,0 0,10.082 L 0,26.499 0,0 Z"
             style="fill:#231f20;fill-opacity:1;fill-rule:nonzero;stroke:none"
             id="path2972"
             inkscape:connector-curvature="0" /></g><g
           id="g2974"
           transform="translate(217.0723,366.2347)"><path
             d="m 0,0 c -3.6,-1.224 -10.368,-2.808 -16.705,-2.808 -9.577,0 -16.058,2.376 -20.45,6.552 -4.536,4.321 -6.912,10.585 -6.912,17.57 0.072,16.849 12.6,25.418 28.37,25.418 6.552,0 11.521,-1.152 14.042,-2.376 L -4.248,33.987 c -2.736,1.152 -5.977,2.016 -11.521,2.016 -7.993,0 -14.618,-4.176 -14.618,-14.041 0,-9.073 5.833,-14.329 13.826,-14.329 1.728,0 3.457,0.216 4.033,0.432 l 0,8.352 -6.481,0 0,10.082 L 0,26.499 0,0 Z"
             style="fill:none;stroke:#231f20;stroke-width:4.30176783;stroke-linecap:butt;stroke-linejoin:miter;stroke-miterlimit:4;stroke-opacity:1;stroke-dasharray:none"
             id="path2976"
             inkscape:connector-curvature="0" /></g><g
           id="g2978"
           transform="translate(255.6631,383.5164)"><path
             d="m 0,0 -17.426,0 0,-8.929 19.514,0 0,-10.657 -32.546,0 0,48.532 31.538,0 0,-10.585 -18.506,0 0,-7.848 L 0,10.513 0,0 Z"
             style="fill:#231f20;fill-opacity:1;fill-rule:nonzero;stroke:none"
             id="path2980"
             inkscape:connector-curvature="0" /></g><g
           id="g2982"
           transform="translate(255.6631,383.5164)"><path
             d="m 0,0 -17.426,0 0,-8.929 19.514,0 0,-10.657 -32.546,0 0,48.532 31.538,0 0,-10.585 -18.506,0 0,-7.848 L 0,10.513 0,0 Z"
             style="fill:none;stroke:#231f20;stroke-width:4.30176783;stroke-linecap:butt;stroke-linejoin:miter;stroke-miterlimit:4;stroke-opacity:1;stroke-dasharray:none"
             id="path2984"
             inkscape:connector-curvature="0" /></g><g
           id="g2986"
           transform="translate(101.6543,390.3567)"><path
             d="m 0,0 c 0.72,-0.072 1.584,-0.144 2.952,-0.144 5.112,0 8.281,2.592 8.281,6.769 0,3.6 -2.448,6.048 -7.344,6.048 C 1.944,12.673 0.648,12.529 0,12.385 L 0,0 Z m -12.889,21.458 c 3.529,0.576 8.641,1.008 16.057,1.008 6.985,0 11.953,-1.224 15.338,-3.817 3.312,-2.447 5.544,-6.768 5.544,-11.736 0,-4.897 -1.656,-9.217 -4.68,-11.954 -3.961,-3.528 -9.649,-5.04 -16.202,-5.04 -1.224,0 -2.376,0.072 -3.168,0.144 l 0,-16.489 -12.889,0 0,47.884 z"
             style="fill:#ffffff;fill-opacity:1;fill-rule:nonzero;stroke:none"
             id="path2988"
             inkscape:connector-curvature="0" /></g><g
           id="g2990"
           transform="translate(101.6543,390.3567)"><path
             d="m 0,0 c 0.72,-0.072 1.584,-0.144 2.952,-0.144 5.112,0 8.281,2.592 8.281,6.769 0,3.6 -2.448,6.048 -7.344,6.048 C 1.944,12.673 0.648,12.529 0,12.385 L 0,0 Z m -12.889,21.458 c 3.529,0.576 8.641,1.008 16.057,1.008 6.985,0 11.953,-1.224 15.338,-3.817 3.312,-2.447 5.544,-6.768 5.544,-11.736 0,-4.897 -1.656,-9.217 -4.68,-11.954 -3.961,-3.528 -9.649,-5.04 -16.202,-5.04 -1.224,0 -2.376,0.072 -3.168,0.144 l 0,-16.489 -12.889,0 0,47.884 z"
             style="fill:none;stroke:#ffffff;stroke-width:2.58106065;stroke-linecap:butt;stroke-linejoin:miter;stroke-miterlimit:4;stroke-opacity:1;stroke-dasharray:none"
             id="path2992"
             inkscape:connector-curvature="0" /></g><g
           id="g2994"
           transform="translate(151.9834,384.8123)"><path
             d="m 0,0 -2.232,8.713 c -0.72,2.736 -1.657,6.696 -2.376,9.577 l -0.145,0 c -0.72,-2.881 -1.439,-6.913 -2.16,-9.649 L -9.001,0 0,0 Z m -10.729,-9.649 -2.736,-11.233 -13.466,0 14.114,48.532 17.281,0 14.474,-48.532 -14.042,0 -3.096,11.233 -12.529,0 z"
             style="fill:#ffffff;fill-opacity:1;fill-rule:nonzero;stroke:none"
             id="path2996"
             inkscape:connector-curvature="0" /></g><g
           id="g2998"
           transform="translate(151.9834,384.8123)"><path
             d="m 0,0 -2.232,8.713 c -0.72,2.736 -1.657,6.696 -2.376,9.577 l -0.145,0 c -0.72,-2.881 -1.439,-6.913 -2.16,-9.649 L -9.001,0 0,0 Z m -10.729,-9.649 -2.736,-11.233 -13.466,0 14.114,48.532 17.281,0 14.474,-48.532 -14.042,0 -3.096,11.233 -12.529,0 z"
             style="fill:none;stroke:#ffffff;stroke-width:2.58106065;stroke-linecap:butt;stroke-linejoin:miter;stroke-miterlimit:4;stroke-opacity:1;stroke-dasharray:none"
             id="path3000"
             inkscape:connector-curvature="0" /></g><g
           id="g3002"
           transform="translate(217.0723,366.2347)"><path
             d="m 0,0 c -3.6,-1.224 -10.368,-2.808 -16.705,-2.808 -9.577,0 -16.058,2.376 -20.45,6.552 -4.536,4.321 -6.912,10.585 -6.912,17.57 0.072,16.849 12.6,25.418 28.37,25.418 6.552,0 11.521,-1.152 14.042,-2.376 L -4.248,33.987 c -2.736,1.152 -5.977,2.016 -11.521,2.016 -7.993,0 -14.618,-4.176 -14.618,-14.041 0,-9.073 5.833,-14.329 13.826,-14.329 1.728,0 3.457,0.216 4.033,0.432 l 0,8.352 -6.481,0 0,10.082 L 0,26.499 0,0 Z"
             style="fill:#ffffff;fill-opacity:1;fill-rule:nonzero;stroke:none"
             id="path3004"
             inkscape:connector-curvature="0" /></g><g
           id="g3006"
           transform="translate(217.0723,366.2347)"><path
             d="m 0,0 c -3.6,-1.224 -10.368,-2.808 -16.705,-2.808 -9.577,0 -16.058,2.376 -20.45,6.552 -4.536,4.321 -6.912,10.585 -6.912,17.57 0.072,16.849 12.6,25.418 28.37,25.418 6.552,0 11.521,-1.152 14.042,-2.376 L -4.248,33.987 c -2.736,1.152 -5.977,2.016 -11.521,2.016 -7.993,0 -14.618,-4.176 -14.618,-14.041 0,-9.073 5.833,-14.329 13.826,-14.329 1.728,0 3.457,0.216 4.033,0.432 l 0,8.352 -6.481,0 0,10.082 L 0,26.499 0,0 Z"
             style="fill:none;stroke:#ffffff;stroke-width:2.58106065;stroke-linecap:butt;stroke-linejoin:miter;stroke-miterlimit:4;stroke-opacity:1;stroke-dasharray:none"
             id="path3008"
             inkscape:connector-curvature="0" /></g><g
           id="g3010"
           transform="translate(255.6631,383.5164)"><path
             d="m 0,0 -17.426,0 0,-8.929 19.514,0 0,-10.657 -32.546,0 0,48.532 31.538,0 0,-10.585 -18.506,0 0,-7.848 L 0,10.513 0,0 Z"
             style="fill:#ffffff;fill-opacity:1;fill-rule:nonzero;stroke:none"
             id="path3012"
             inkscape:connector-curvature="0" /></g><g
           id="g3014"
           transform="translate(255.6631,383.5164)"><path
             d="m 0,0 -17.426,0 0,-8.929 19.514,0 0,-10.657 -32.546,0 0,48.532 31.538,0 0,-10.585 -18.506,0 0,-7.848 L 0,10.513 0,0 Z"
             style="fill:none;stroke:#ffffff;stroke-width:2.58106065;stroke-linecap:butt;stroke-linejoin:miter;stroke-miterlimit:4;stroke-opacity:1;stroke-dasharray:none"
             id="path3016"
             inkscape:connector-curvature="0" /></g><g
           id="g3018"
           transform="translate(101.6543,390.3567)"><path
             d="m 0,0 c 0.72,-0.072 1.584,-0.144 2.952,-0.144 5.112,0 8.281,2.592 8.281,6.769 0,3.6 -2.448,6.048 -7.344,6.048 C 1.944,12.673 0.648,12.529 0,12.385 L 0,0 Z m -12.889,21.458 c 3.529,0.576 8.641,1.008 16.057,1.008 6.985,0 11.953,-1.224 15.338,-3.817 3.312,-2.447 5.544,-6.768 5.544,-11.736 0,-4.897 -1.656,-9.217 -4.68,-11.954 -3.961,-3.528 -9.649,-5.04 -16.202,-5.04 -1.224,0 -2.376,0.072 -3.168,0.144 l 0,-16.489 -12.889,0 0,47.884 z"
             style="fill:#80cc28;fill-opacity:1;fill-rule:nonzero;stroke:none"
             id="path3020"
             inkscape:connector-curvature="0" /></g><g
           id="g3022"
           transform="translate(151.9834,384.8123)"><path
             d="m 0,0 -2.232,8.713 c -0.72,2.736 -1.657,6.696 -2.376,9.577 l -0.145,0 c -0.72,-2.881 -1.439,-6.913 -2.16,-9.649 L -9.001,0 0,0 Z m -10.729,-9.649 -2.736,-11.233 -13.466,0 14.114,48.532 17.281,0 14.474,-48.532 -14.042,0 -3.096,11.233 -12.529,0 z"
             style="fill:#80cc28;fill-opacity:1;fill-rule:nonzero;stroke:none"
             id="path3024"
             inkscape:connector-curvature="0" /></g><g
           id="g3026"
           transform="translate(217.0723,366.2347)"><path
             d="m 0,0 c -3.6,-1.224 -10.368,-2.808 -16.705,-2.808 -9.577,0 -16.058,2.376 -20.45,6.552 -4.536,4.321 -6.912,10.585 -6.912,17.57 0.072,16.849 12.6,25.418 28.37,25.418 6.552,0 11.521,-1.152 14.042,-2.376 L -4.248,33.987 c -2.736,1.152 -5.977,2.016 -11.521,2.016 -7.993,0 -14.618,-4.176 -14.618,-14.041 0,-9.073 5.833,-14.329 13.826,-14.329 1.728,0 3.457,0.216 4.033,0.432 l 0,8.352 -6.481,0 0,10.082 L 0,26.499 0,0 Z"
             style="fill:#80cc28;fill-opacity:1;fill-rule:nonzero;stroke:none"
             id="path3028"
             inkscape:connector-curvature="0" /></g><g
           id="g3030"
           transform="translate(255.6631,383.5164)"><path
             d="m 0,0 -17.426,0 0,-8.929 19.514,0 0,-10.657 -32.546,0 0,48.532 31.538,0 0,-10.585 -18.506,0 0,-7.848 L 0,10.513 0,0 Z"
             style="fill:#80cc28;fill-opacity:1;fill-rule:nonzero;stroke:none"
             id="path3032"
             inkscape:connector-curvature="0" /></g></g></g></g></svg>