<?xml version="1.0" encoding="UTF-8" standalone="no"?>
<!-- Created with Inkscape (http://www.inkscape.org/) -->

<svg
   xmlns:dc="http://purl.org/dc/elements/1.1/"
   xmlns:cc="http://creativecommons.org/ns#"
   xmlns:rdf="http://www.w3.org/1999/02/22-rdf-syntax-ns#"
   xmlns:svg="http://www.w3.org/2000/svg"
   xmlns="http://www.w3.org/2000/svg"
   xmlns:sodipodi="http://sodipodi.sourceforge.net/DTD/sodipodi-0.dtd"
   xmlns:inkscape="http://www.inkscape.org/namespaces/inkscape"
   id="svg2"
   version="1.1"
   inkscape:version="0.91+devel r13869"
   xml:space="preserve"
   width="72"
   height="72"
   viewBox="0 0 72 72"
   sodipodi:docname="page-die.svg"
   inkscape:export-filename="/home/joe/page/art/page-die/page-die-t.png"
   inkscape:export-xdpi="90"
   inkscape:export-ydpi="90"><metadata
     id="metadata8"><rdf:RDF><cc:Work
         rdf:about=""><dc:format>image/svg+xml</dc:format><dc:type
           rdf:resource="http://purl.org/dc/dcmitype/StillImage" /><dc:title></dc:title></cc:Work></rdf:RDF></metadata><defs
     id="defs6"><clipPath
       clipPathUnits="userSpaceOnUse"
       id="clipPath16"><path
         d="M 0,54 54,54 54,0 0,0 0,54 Z"
         id="path18"
         inkscape:connector-curvature="0" /></clipPath><clipPath
       clipPathUnits="userSpaceOnUse"
       id="clipPath24"><path
         d="m 1.14307,23.7842 47.84233,0 0,-22.7842 -47.84233,0 0,22.7842 z"
         id="path26"
         inkscape:connector-curvature="0" /></clipPath></defs><sodipodi:namedview
     pagecolor="#ffffff"
     bordercolor="#666666"
     borderopacity="1"
     objecttolerance="10"
     gridtolerance="10"
     guidetolerance="10"
     inkscape:pageopacity="0"
     inkscape:pageshadow="2"
     inkscape:window-width="1345"
     inkscape:window-height="750"
     id="namedview4"
     inkscape:document-units="px"
     showgrid="false"
     inkscape:zoom="3.2777778"
     inkscape:cx="36"
     inkscape:cy="36"
     inkscape:window-x="21"
     inkscape:window-y="0"
     inkscape:window-maximized="1"
     inkscape:current-layer="g10" /><g
     id="g10"
     inkscape:groupmode="layer"
     inkscape:label="page-die"
     transform="matrix(1.3333333,0,0,-1.3333333,0,72)"><g
       id="g12"
       transform="translate(0,-0.50000001)"><g
         id="g14"
         clip-path="url(#clipPath16)"><g
           id="g20"><g
             id="g22" /><g
             id="g28"><g
               clip-path="url(#clipPath24)"
               id="g30"><g
                 transform="translate(13.9824,8.0332)"
                 id="g32"><path
                   d="M 0,0 C 6.184,-4.447 12.149,-9.438 17.682,-5.75 22.78,-3.254 31.566,1.519 34.496,6.617 39.812,16.163 1.835,17.244 -8.899,14.317 -19.634,11.391 -5.641,4.664 0,0"
                   style="fill:#fcfdfd;fill-opacity:1;fill-rule:nonzero;stroke:none"
                   id="path34"
                   inkscape:connector-curvature="0" /></g><g
                 transform="translate(14.0308,8.1396)"
                 id="g36"><path
                   d="M 0,0 C 6.116,-4.375 11.932,-9.386 17.496,-5.822 22.604,-3.403 31.437,1.474 34.365,6.527 39.826,15.954 1.373,16.971 -8.866,14.184 -19.601,11.303 -5.589,4.576 0,0"
                   style="fill:#f3f0ee;fill-opacity:1;fill-rule:nonzero;stroke:none"
                   id="path38"
                   inkscape:connector-curvature="0" /></g><g
                 transform="translate(14.0791,8.2461)"
                 id="g40"><path
                   d="M 0,0 C 6.049,-4.303 11.715,-9.334 17.31,-5.895 22.429,-3.553 31.273,1.448 34.232,6.437 39.776,15.782 0.911,16.697 -8.832,14.049 -19.567,11.215 -5.538,4.488 0,0"
                   style="fill:#eae4df;fill-opacity:1;fill-rule:nonzero;stroke:none"
                   id="path42"
                   inkscape:connector-curvature="0" /></g><g
                 transform="translate(14.1274,8.3525)"
                 id="g44"><path
                   d="M 0,0 C 5.982,-4.229 11.499,-9.282 17.124,-5.967 22.253,-3.703 31.111,1.423 34.101,6.347 39.727,15.609 0.449,16.424 -8.798,13.915 -19.534,11.128 -5.486,4.401 0,0"
                   style="fill:#e2d8d2;fill-opacity:1;fill-rule:nonzero;stroke:none"
                   id="path46"
                   inkscape:connector-curvature="0" /></g><g
                 transform="translate(14.1758,8.46)"
                 id="g48"><path
                   d="m 0,0 c 5.915,-4.158 11.282,-9.231 16.938,-6.039 5.14,2.185 14.009,7.435 17.031,12.294 5.71,9.182 -33.982,9.894 -42.733,7.525 C -19.501,11.039 -5.434,4.313 0,0"
                   style="fill:#d9cdc5;fill-opacity:1;fill-rule:nonzero;stroke:none"
                   id="path50"
                   inkscape:connector-curvature="0" /></g><g
                 transform="translate(14.2241,8.5664)"
                 id="g52"><path
                   d="M 0,0 C 5.848,-4.086 11.064,-9.179 16.751,-6.111 21.902,-4.003 30.779,1.376 33.837,6.165 39.618,15.271 -0.475,15.876 -8.73,13.646 -19.467,10.951 -5.382,4.225 0,0"
                   style="fill:#d1c2b8;fill-opacity:1;fill-rule:nonzero;stroke:none"
                   id="path54"
                   inkscape:connector-curvature="0" /></g><g
                 transform="translate(14.2725,8.6729)"
                 id="g56"><path
                   d="m 0,0 c 5.781,-4.014 10.848,-9.127 16.565,-6.184 5.162,2.032 14.056,7.532 17.14,12.259 5.874,9.019 -34.641,9.528 -42.401,7.437 C -19.434,10.864 -5.331,4.138 0,0"
                   style="fill:#c9b7ac;fill-opacity:1;fill-rule:nonzero;stroke:none"
                   id="path58"
                   inkscape:connector-curvature="0" /></g><g
                 transform="translate(14.3208,8.7793)"
                 id="g60"><path
                   d="m 0,0 c 5.713,-3.94 10.63,-9.076 16.38,-6.256 5.17,1.953 14.083,7.575 17.194,12.24 5.966,8.932 -34.972,9.345 -42.237,7.394 C -19.401,10.776 -5.279,4.05 0,0"
                   style="fill:#c2ada1;fill-opacity:1;fill-rule:nonzero;stroke:none"
                   id="path62"
                   inkscape:connector-curvature="0" /></g><g
                 transform="translate(14.3691,8.8857)"
                 id="g64"><path
                   d="m 0,0 c 5.646,-3.868 10.414,-9.023 16.193,-6.328 5.182,1.876 14.113,7.619 17.249,12.223 6.059,8.842 -35.302,9.161 -42.07,7.349 C -19.368,10.688 -5.228,3.962 0,0"
                   style="fill:#baa396;fill-opacity:1;fill-rule:nonzero;stroke:none"
                   id="path66"
                   inkscape:connector-curvature="0" /></g><g
                 transform="translate(14.4175,8.9922)"
                 id="g68"><path
                   d="M 0,0 C 5.579,-3.796 10.197,-8.972 16.007,-6.4 21.2,-4.602 30.138,1.271 33.31,5.804 39.444,14.572 -2.322,14.782 -8.595,13.109 -19.334,10.601 -5.176,3.874 0,0"
                   style="fill:#b39a8c;fill-opacity:1;fill-rule:nonzero;stroke:none"
                   id="path70"
                   inkscape:connector-curvature="0" /></g><g
                 transform="translate(14.4658,9.0996)"
                 id="g72"><path
                   d="m 0,0 c 5.512,-3.724 9.98,-8.921 15.822,-6.474 5.201,1.722 14.157,7.717 17.357,12.187 6.219,8.685 -35.963,8.795 -41.74,7.262 C -19.301,10.512 -5.125,3.785 0,0"
                   style="fill:#ac9183;fill-opacity:1;fill-rule:nonzero;stroke:none"
                   id="path74"
                   inkscape:connector-curvature="0" /></g><g
                 transform="translate(14.5142,9.2061)"
                 id="g76"><path
                   d="m 0,0 c 5.445,-3.651 9.763,-8.869 15.636,-6.545 5.212,1.643 14.182,7.763 17.41,12.167 6.307,8.603 -36.291,8.612 -41.573,7.219 C -19.268,10.425 -5.073,3.698 0,0"
                   style="fill:#a5897a;fill-opacity:1;fill-rule:nonzero;stroke:none"
                   id="path78"
                   inkscape:connector-curvature="0" /></g><g
                 transform="translate(14.5625,9.3125)"
                 id="g80"><path
                   d="m 0,0 c 5.377,-3.579 9.546,-8.817 15.45,-6.617 5.222,1.565 14.207,7.808 17.465,12.149 6.395,8.52 -36.622,8.429 -41.409,7.175 C -19.235,10.337 -5.021,3.61 0,0"
                   style="fill:#9f8171;fill-opacity:1;fill-rule:nonzero;stroke:none"
                   id="path82"
                   inkscape:connector-curvature="0" /></g><g
                 transform="translate(14.6108,9.4189)"
                 id="g84"><path
                   d="m 0,0 c 5.311,-3.507 9.329,-8.766 15.264,-6.689 5.233,1.488 14.233,7.854 17.519,12.13 6.483,8.438 -36.952,8.247 -41.242,7.131 C -19.201,10.249 -4.969,3.522 0,0"
                   style="fill:#987969;fill-opacity:1;fill-rule:nonzero;stroke:none"
                   id="path86"
                   inkscape:connector-curvature="0" /></g><g
                 transform="translate(14.6592,9.5254)"
                 id="g88"><path
                   d="M 0,0 C 5.243,-3.435 9.112,-8.714 15.078,-6.762 20.321,-5.351 29.337,1.14 32.651,5.352 39.223,13.704 -4.631,13.414 -8.426,12.438 -19.168,10.161 -4.917,3.435 0,0"
                   style="fill:#927262;fill-opacity:1;fill-rule:nonzero;stroke:none"
                   id="path90"
                   inkscape:connector-curvature="0" /></g><g
                 transform="translate(14.7075,9.6318)"
                 id="g92"><path
                   d="M 0,0 C 5.176,-3.361 8.895,-8.662 14.892,-6.834 20.145,-5.5 29.178,1.112 32.52,5.262 39.18,13.53 -5.093,13.141 -8.392,12.305 -19.135,10.074 -4.866,3.348 0,0"
                   style="fill:#8c6a5a;fill-opacity:1;fill-rule:nonzero;stroke:none"
                   id="path94"
                   inkscape:connector-curvature="0" /></g><g
                 transform="translate(14.7563,9.7383)"
                 id="g96"><path
                   d="M 0,0 C 5.108,-3.289 8.678,-8.61 14.706,-6.906 19.969,-5.65 29.018,1.086 32.387,5.171 39.137,13.355 -5.555,12.867 -8.358,12.17 -19.102,9.986 -4.815,3.26 0,0"
                   style="fill:#866454;fill-opacity:1;fill-rule:nonzero;stroke:none"
                   id="path98"
                   inkscape:connector-curvature="0" /></g><g
                 transform="translate(14.8047,9.8447)"
                 id="g100"><path
                   d="m 0,0 c 5.041,-3.217 8.46,-8.558 14.52,-6.979 5.274,1.179 14.339,8.039 17.736,12.06 6.841,8.1 -38.273,7.513 -40.581,6.955 C -19.069,9.898 -4.763,3.172 0,0"
                   style="fill:#815d4d;fill-opacity:1;fill-rule:nonzero;stroke:none"
                   id="path102"
                   inkscape:connector-curvature="0" /></g><g
                 transform="translate(14.853,9.9521)"
                 id="g104"><path
                   d="m 0,0 c 4.974,-3.146 8.244,-8.507 14.333,-7.051 5.285,1.101 14.369,8.082 17.791,12.04 6.931,8.017 -38.603,7.33 -40.415,6.912 C -19.036,9.81 -4.711,3.083 0,0"
                   style="fill:#7b5748;fill-opacity:1;fill-rule:nonzero;stroke:none"
                   id="path106"
                   inkscape:connector-curvature="0" /></g><g
                 transform="translate(14.9014,10.0586)"
                 id="g108"><path
                   d="M 0,0 C 4.907,-3.072 8.027,-8.455 14.147,-7.123 19.442,-6.101 28.543,1.004 31.992,4.899 39.015,12.83 -6.94,12.046 -8.257,11.768 -19.002,9.722 -4.66,2.995 0,0"
                   style="fill:#765142;fill-opacity:1;fill-rule:nonzero;stroke:none"
                   id="path110"
                   inkscape:connector-curvature="0" /></g><g
                 transform="translate(14.9497,10.165)"
                 id="g112"><path
                   d="M 0,0 C 4.84,-3 7.81,-8.403 13.961,-7.195 19.266,-6.25 28.385,0.977 31.86,4.809 38.974,12.653 -7.402,11.772 -8.223,11.633 -18.969,9.635 -4.608,2.908 0,0"
                   style="fill:#714c3d;fill-opacity:1;fill-rule:nonzero;stroke:none"
                   id="path114"
                   inkscape:connector-curvature="0" /></g><g
                 transform="translate(6.8086,21.7705)"
                 id="g116"><path
                   d="m 0,0 c -10.746,-1.952 3.633,-8.679 8.189,-11.499 4.773,-2.928 7.593,-8.352 13.776,-7.268 5.315,0.869 14.481,8.19 17.953,11.987 C 47.186,0.922 0.325,0 0,0"
                   style="fill:#6c4638;fill-opacity:1;fill-rule:nonzero;stroke:none"
                   id="path118"
                   inkscape:connector-curvature="0" /></g></g></g></g><g
           id="g120"
           transform="translate(28.7061,4.04)"><path
             d="m 0,0 c -5.904,0 -27.362,6.017 -24.638,31.676 4.769,18.052 22.591,17.157 23.73,17.143 C 0.23,48.808 24.069,48.252 23.274,27.702 23.274,9.196 7.606,0 0,0"
             style="fill:#e1701a;fill-opacity:1;fill-rule:nonzero;stroke:none"
             id="path122"
             inkscape:connector-curvature="0" /></g><g
           id="g124"
           transform="translate(17.0557,22.0625)"><path
             d="m 0,0 c 0.505,-1.883 -0.197,-3.41 -1.57,-3.41 -1.373,0 -2.895,1.527 -3.4,3.41 -0.504,1.884 0.199,3.41 1.573,3.41 C -2.025,3.41 -0.505,1.884 0,0"
             style="fill:#231f20;fill-opacity:1;fill-rule:nonzero;stroke:none"
             id="path126"
             inkscape:connector-curvature="0" /></g><g
           id="g128"
           transform="translate(43.2197,20.2207)"><path
             d="M 0,0 C -1.025,-1.639 -2.531,-2.292 -3.365,-1.457 -4.199,-0.623 -4.044,1.38 -3.02,3.019 -1.993,4.657 -0.487,5.311 0.348,4.475 1.182,3.642 1.025,1.639 0,0"
             style="fill:#231f20;fill-opacity:1;fill-rule:nonzero;stroke:none"
             id="path130"
             inkscape:connector-curvature="0" /></g><g
           id="g132"
           transform="translate(49.3848,30.4785)"><path
             d="M 0,0 C -1.025,-1.639 -2.531,-2.291 -3.365,-1.457 -4.199,-0.623 -4.044,1.381 -3.02,3.02 -1.993,4.658 -0.487,5.311 0.348,4.476 1.182,3.643 1.025,1.639 0,0"
             style="fill:#231f20;fill-opacity:1;fill-rule:nonzero;stroke:none"
             id="path134"
             inkscape:connector-curvature="0" /></g><g
           id="g136"
           transform="translate(37.0107,9.1338)"><path
             d="M 0,0 C -1.025,-1.638 -2.531,-2.292 -3.365,-1.457 -4.199,-0.623 -4.044,1.38 -3.02,3.019 -1.993,4.657 -0.487,5.311 0.348,4.476 1.182,3.642 1.025,1.639 0,0"
             style="fill:#231f20;fill-opacity:1;fill-rule:nonzero;stroke:none"
             id="path138"
             inkscape:connector-curvature="0" /></g><g
           id="g140"
           transform="translate(33.0205,37.6768)"><path
             d="m 0,0 c 0,-1.271 -1.779,-2.302 -3.975,-2.302 -2.194,0 -3.973,1.031 -3.973,2.302 0,1.271 1.779,2.301 3.973,2.301 C -1.779,2.301 0,1.271 0,0"
             style="fill:#231f20;fill-opacity:1;fill-rule:nonzero;stroke:none"
             id="path142"
             inkscape:connector-curvature="0" /></g><g
           id="g144"
           transform="translate(44.8936,44.4932)"><path
             d="m 0,0 c 0,-1.11 -1.779,-2.009 -3.975,-2.009 -2.194,0 -3.973,0.899 -3.973,2.009 0,1.109 1.779,2.009 3.973,2.009 C -1.779,2.009 0,1.109 0,0"
             style="fill:#231f20;fill-opacity:1;fill-rule:nonzero;stroke:none"
             id="path146"
             inkscape:connector-curvature="0" /></g><g
           id="g148"
           transform="translate(32.2588,44.5498)"><path
             d="m 0,0 c 0,-1.142 -1.779,-2.065 -3.975,-2.065 -2.194,0 -3.973,0.923 -3.973,2.065 0,1.141 1.779,2.065 3.973,2.065 C -1.779,2.065 0,1.141 0,0"
             style="fill:#231f20;fill-opacity:1;fill-rule:nonzero;stroke:none"
             id="path150"
             inkscape:connector-curvature="0" /></g><g
           id="g152"
           transform="translate(31.3867,50.542)"><path
             d="m 0,0 c 0,-0.938 -1.678,-1.699 -3.747,-1.699 -2.069,0 -3.747,0.761 -3.747,1.699 0,0.938 1.678,1.699 3.747,1.699 C -1.678,1.699 0,0.938 0,0"
             style="fill:#231f20;fill-opacity:1;fill-rule:nonzero;stroke:none"
             id="path154"
             inkscape:connector-curvature="0" /></g><g
           id="g156"
           transform="translate(20.1055,32.2246)"><path
             d="M 0,0 C 7.011,-3.974 10.871,-2.299 15.412,-0.142 11.098,-3.32 9.622,-7.181 8.94,-12.403 l 0,0.113 C 7.124,-7.408 5.493,-3.732 0,0"
             style="fill:#c9531f;fill-opacity:1;fill-rule:nonzero;stroke:none"
             id="path158"
             inkscape:connector-curvature="0" /></g><g
           id="g160"
           transform="translate(46.0762,37.5332)"><path
             d="M 0,0 C 1.663,0.465 3.708,0.215 5.51,-0.493 5.098,1.543 4.39,3.313 3.478,4.859 3.037,2.99 1.33,1.182 0,0"
             style="fill:#c9531f;fill-opacity:1;fill-rule:nonzero;stroke:none"
             id="path162"
             inkscape:connector-curvature="0" /></g><g
           id="g164"
           transform="translate(11.2217,38.5547)"><path
             d="M 0,0 C -1.612,1.611 -2.785,3.404 -3.375,5.324 -4.68,3.535 -5.811,1.396 -6.658,-1.172 -4.781,0.238 -2.06,0.839 0,0"
             style="fill:#c9531f;fill-opacity:1;fill-rule:nonzero;stroke:none"
             id="path166"
             inkscape:connector-curvature="0" /></g><g
           id="g168"
           transform="translate(29.3867,10.625)"><path
             d="m 0,0 c -0.861,-2.35 -2.278,-4.625 -4.295,-6.121 1.468,-0.323 2.721,-0.464 3.614,-0.464 1.465,0 3.231,0.345 5.124,1.028 C 2.444,-4.331 0.967,-2.484 0,0"
             style="fill:#c9531f;fill-opacity:1;fill-rule:nonzero;stroke:none"
             id="path170"
             inkscape:connector-curvature="0" /></g><g
           id="g172"
           transform="translate(28.7061,4.04)"><path
             d="m 0,0 c -5.904,0 -27.362,6.017 -24.638,31.676 4.769,18.052 22.591,17.157 23.73,17.143 C 0.23,48.808 24.069,48.252 23.274,27.702 23.274,9.196 7.606,0 0,0 Z"
             style="fill:none;stroke:#231f20;stroke-width:0.5;stroke-linecap:butt;stroke-linejoin:miter;stroke-miterlimit:4;stroke-dasharray:none;stroke-opacity:1"
             id="path174"
             inkscape:connector-curvature="0" /></g><g
           id="g176"
           transform="translate(19.6318,44.5674)"><path
             d="m 0,0 c 0,-1.15 -1.705,-2.083 -3.81,-2.083 -2.103,0 -3.808,0.933 -3.808,2.083 0,1.15 1.705,2.083 3.808,2.083 C -1.705,2.083 0,1.15 0,0"
             style="fill:#231f20;fill-opacity:1;fill-rule:nonzero;stroke:none"
             id="path178"
             inkscape:connector-curvature="0" /></g><g
           id="g180"
           transform="translate(14.1553,45.0869)"><path
             d="m 0,0 c 0,-0.173 -0.132,-0.313 -0.296,-0.313 -0.163,0 -0.296,0.14 -0.296,0.313 0,0.174 0.133,0.313 0.296,0.313 C -0.132,0.313 0,0.174 0,0"
             style="fill:#ffffff;fill-opacity:1;fill-rule:nonzero;stroke:none"
             id="path182"
             inkscape:connector-curvature="0" /></g><g
           id="g184"
           transform="translate(28.4326,50.1455)"><path
             d="m 0,0 c 0,-0.22 -0.177,-0.397 -0.396,-0.397 -0.219,0 -0.397,0.177 -0.397,0.397 0,0.219 0.178,0.396 0.397,0.396 C -0.177,0.396 0,0.219 0,0"
             style="fill:#ffffff;fill-opacity:1;fill-rule:nonzero;stroke:none"
             id="path186"
             inkscape:connector-curvature="0" /></g><g
           id="g188"
           transform="translate(40.6484,44.9023)"><path
             d="m 0,0 c 0,-0.227 -0.157,-0.409 -0.352,-0.409 -0.194,0 -0.351,0.182 -0.351,0.409 0,0.225 0.157,0.408 0.351,0.408 C -0.157,0.408 0,0.225 0,0"
             style="fill:#ffffff;fill-opacity:1;fill-rule:nonzero;stroke:none"
             id="path190"
             inkscape:connector-curvature="0" /></g><g
           id="g192"
           transform="translate(28.1934,44.9141)"><path
             d="m 0,0 c 0,-0.201 -0.153,-0.364 -0.344,-0.364 -0.189,0 -0.344,0.163 -0.344,0.364 0,0.2 0.155,0.363 0.344,0.363 C -0.153,0.363 0,0.2 0,0"
             style="fill:#ffffff;fill-opacity:1;fill-rule:nonzero;stroke:none"
             id="path194"
             inkscape:connector-curvature="0" /></g><g
           id="g196"
           transform="translate(29.0449,38.0322)"><path
             d="m 0,0 c 0,-0.153 -0.216,-0.277 -0.481,-0.277 -0.268,0 -0.483,0.124 -0.483,0.277 0,0.153 0.215,0.278 0.483,0.278 C -0.216,0.278 0,0.153 0,0"
             style="fill:#ffffff;fill-opacity:1;fill-rule:nonzero;stroke:none"
             id="path198"
             inkscape:connector-curvature="0" /></g><g
           id="g200"
           transform="translate(15.7627,20.1055)"><path
             d="m 0,0 c 0,-0.283 -0.178,-0.512 -0.397,-0.512 -0.22,0 -0.398,0.229 -0.398,0.512 0,0.281 0.178,0.51 0.398,0.51 C -0.178,0.51 0,0.281 0,0"
             style="fill:#ffffff;fill-opacity:1;fill-rule:nonzero;stroke:none"
             id="path202"
             inkscape:connector-curvature="0" /></g><g
           id="g204"
           transform="translate(42.2188,20.2197)"><path
             d="m 0,0 c 0,-0.234 -0.114,-0.425 -0.256,-0.425 -0.14,0 -0.255,0.191 -0.255,0.425 0,0.233 0.115,0.424 0.255,0.424 C -0.114,0.424 0,0.233 0,0"
             style="fill:#ffffff;fill-opacity:1;fill-rule:nonzero;stroke:none"
             id="path206"
             inkscape:connector-curvature="0" /></g><g
           id="g208"
           transform="translate(48.0068,30.6641)"><path
             d="m 0,0 c 0,-0.22 -0.152,-0.397 -0.341,-0.397 -0.188,0 -0.341,0.177 -0.341,0.397 0,0.219 0.153,0.396 0.341,0.396 C -0.152,0.396 0,0.219 0,0"
             style="fill:#ffffff;fill-opacity:1;fill-rule:nonzero;stroke:none"
             id="path210"
             inkscape:connector-curvature="0" /></g><g
           id="g212"
           transform="translate(36.0332,9.1162)"><path
             d="m 0,0 c 0,-0.269 -0.217,-0.486 -0.484,-0.486 -0.269,0 -0.486,0.217 -0.486,0.486 0,0.269 0.217,0.487 0.486,0.487 C -0.217,0.487 0,0.269 0,0"
             style="fill:#ffffff;fill-opacity:1;fill-rule:nonzero;stroke:none"
             id="path214"
             inkscape:connector-curvature="0" /></g></g></g></g></svg>